<svg width="361" height="88" viewBox="0 0 361 88" fill="none" xmlns="http://www.w3.org/2000/svg">
<g clip-path="url(#clip0)">
<path d="M181.857 80.2187L203.197 67.8587L207.647 21.2787L181.857 26.9387V80.2187Z" fill="#8E2948"/>
<path d="M185.577 78.0688L191.387 74.6988L192.397 24.6288L186.567 25.9088L185.577 78.0688Z" fill="#CDD8DF"/>
<path d="M207.647 21.2787L181.857 26.9387L151.297 21.6987L181.857 19.0687L207.647 21.2787Z" fill="#EEEEF7"/>
<path d="M195.437 72.9387L200.377 69.4887L203.047 22.2887L198.237 23.3487L195.437 72.9387Z" fill="#CDD8DF"/>
<path d="M181.857 26.9387L151.297 21.6987L155.927 70.0487L181.857 80.2187V26.9387Z" fill="#EA4357"/>
<path d="M159.467 71.4387L165.847 73.9387L163.527 23.7887L156.437 22.5787L159.467 71.4387Z" fill="white"/>
<path d="M169.827 75.4987L176.197 77.9987L175.197 25.7987L168.817 24.6987L169.827 75.4987Z" fill="white"/>
<path d="M159.057 61.4786C159.057 58.7786 156.557 56.5886 153.477 56.5886C150.397 56.5886 147.887 58.7786 147.887 61.4786C147.89 61.9618 147.971 62.4412 148.127 62.8986C147.002 63.2098 145.972 63.7937 145.127 64.5986C144.608 64.3238 144.033 64.1707 143.446 64.1508C142.859 64.131 142.276 64.2451 141.739 64.4843C141.203 64.7235 140.728 65.0816 140.351 65.5316C139.973 65.9815 139.703 66.5115 139.561 67.0812C139.419 67.651 139.408 68.2457 139.53 68.8202C139.651 69.3948 139.902 69.9341 140.263 70.3973C140.624 70.8605 141.086 71.2356 141.613 71.4939C142.14 71.7523 142.72 71.8873 143.307 71.8886C143.645 71.8844 143.981 71.8373 144.307 71.7486C144.998 72.6833 145.904 73.4377 146.948 73.9478C147.993 74.4578 149.145 74.7085 150.307 74.6786C154.137 74.6786 157.307 71.9786 157.307 68.6786C157.3 67.6332 156.991 66.612 156.417 65.7386C157.207 65.3407 157.871 64.7323 158.337 63.9805C158.803 63.2288 159.052 62.363 159.057 61.4786V61.4786Z" fill="#FFF0C2"/>
<path d="M153.097 69.7087C153.258 69.2151 153.22 68.6784 152.993 68.2118C152.765 67.7453 152.365 67.3856 151.877 67.2087C151.409 66.9801 150.87 66.943 150.375 67.1055C149.88 67.268 149.468 67.6171 149.227 68.0787C149.157 68.2474 149.117 68.4265 149.107 68.6087C148.665 68.5477 148.216 68.5958 147.797 68.7487C147.649 68.5608 147.457 68.413 147.237 68.3187C147.059 68.2354 146.866 68.189 146.669 68.1821C146.473 68.1753 146.277 68.2082 146.093 68.2789C145.91 68.3497 145.743 68.4567 145.602 68.5936C145.461 68.7305 145.349 68.8946 145.272 69.0758C145.196 69.2571 145.158 69.4518 145.159 69.6484C145.159 69.845 145.2 70.0394 145.278 70.2199C145.356 70.4004 145.47 70.5633 145.612 70.6989C145.754 70.8344 145.923 70.9398 146.107 71.0087C146.221 71.0573 146.343 71.0877 146.467 71.0987C146.569 71.5206 146.77 71.9122 147.053 72.2409C147.337 72.5696 147.694 72.8259 148.097 72.9887C148.676 73.2794 149.346 73.33 149.962 73.1297C150.578 72.9294 151.09 72.4942 151.387 71.9187C151.539 71.5555 151.581 71.1555 151.507 70.7687C151.844 70.7568 152.171 70.6513 152.452 70.4641C152.733 70.277 152.956 70.0154 153.097 69.7087V69.7087Z" fill="#F3B952"/>
<path d="M188.077 17.9487C187.933 16.8813 187.406 15.9023 186.595 15.1935C185.784 14.4847 184.744 14.094 183.667 14.094C182.59 14.094 181.549 14.4847 180.738 15.1935C179.927 15.9023 179.401 16.8813 179.257 17.9487C179.258 18.3299 179.322 18.7084 179.447 19.0687C178.543 19.3051 177.714 19.766 177.037 20.4087C176.598 20.1681 176.107 20.0409 175.607 20.0387C175.19 20.0148 174.772 20.0764 174.379 20.2197C173.987 20.3629 173.628 20.5848 173.324 20.8718C173.02 21.1588 172.778 21.5047 172.612 21.8885C172.447 22.2723 172.362 22.6858 172.362 23.1037C172.362 23.5216 172.447 23.9351 172.612 24.3189C172.778 24.7026 173.02 25.0486 173.324 25.3356C173.628 25.6225 173.987 25.8444 174.379 25.9877C174.772 26.1309 175.19 26.1925 175.607 26.1687C175.871 26.1645 176.134 26.1242 176.387 26.0487C176.926 26.7844 177.635 27.3794 178.453 27.7832C179.271 28.1871 180.175 28.3879 181.087 28.3687C184.087 28.3687 186.567 26.2387 186.567 23.6087C186.565 22.7835 186.322 21.9769 185.867 21.2887C186.51 20.9929 187.057 20.5236 187.448 19.9335C187.838 19.3434 188.056 18.656 188.077 17.9487V17.9487Z" fill="#FFF0C2"/>
<path d="M187.077 18.6386C187.021 18.2101 186.811 17.8166 186.486 17.5315C186.161 17.2464 185.744 17.0892 185.312 17.0892C184.88 17.0892 184.462 17.2464 184.138 17.5315C183.813 17.8166 183.603 18.2101 183.547 18.6386C183.546 18.7914 183.569 18.9434 183.617 19.0886C183.245 19.1796 182.901 19.3618 182.617 19.6186C182.439 19.5224 182.239 19.4709 182.037 19.4686C181.711 19.4686 181.398 19.5982 181.167 19.8289C180.936 20.0596 180.807 20.3724 180.807 20.6986C180.807 21.0249 180.936 21.3377 181.167 21.5684C181.398 21.799 181.711 21.9286 182.037 21.9286C182.145 21.9274 182.253 21.9106 182.357 21.8786C182.572 22.174 182.855 22.413 183.182 22.5749C183.51 22.7369 183.872 22.8171 184.237 22.8086C184.78 22.8444 185.316 22.6635 185.726 22.3056C186.136 21.9477 186.388 21.4418 186.427 20.8986C186.426 20.5711 186.329 20.251 186.147 19.9786C186.412 19.8657 186.641 19.68 186.805 19.4429C186.97 19.2058 187.064 18.927 187.077 18.6386V18.6386Z" fill="#FFC717"/>
<path d="M195.837 19.2986C195.701 18.226 195.179 17.2396 194.368 16.5246C193.557 15.8096 192.513 15.415 191.432 15.415C190.351 15.415 189.307 15.8096 188.496 16.5246C187.685 17.2396 187.162 18.226 187.027 19.2986C187.028 19.6766 187.092 20.0518 187.217 20.4086C186.316 20.651 185.488 21.1111 184.807 21.7486C184.397 21.5298 183.942 21.4074 183.477 21.3906C183.012 21.3739 182.55 21.4633 182.125 21.652C181.7 21.8408 181.324 22.1239 181.024 22.4799C180.725 22.8359 180.511 23.2553 180.398 23.7065C180.285 24.1576 180.277 24.6285 180.373 25.0834C180.47 25.5383 180.669 25.9653 180.955 26.3318C181.241 26.6983 181.607 26.9948 182.025 27.1987C182.443 27.4027 182.902 27.5086 183.367 27.5086C183.634 27.5036 183.899 27.4666 184.157 27.3986C184.697 28.1326 185.407 28.7256 186.225 29.1276C187.043 29.5297 187.946 29.729 188.857 29.7086C191.857 29.7086 194.337 27.5786 194.337 24.9586C194.334 24.1338 194.09 23.3277 193.637 22.6386C194.278 22.3415 194.823 21.8715 195.212 21.2815C195.6 20.6915 195.817 20.0048 195.837 19.2986Z" fill="#FFF0C2"/>
<path d="M189.867 24.6587C189.867 24.3935 189.762 24.1391 189.574 23.9516C189.386 23.764 189.132 23.6587 188.867 23.6587C188.602 23.6587 188.347 23.764 188.16 23.9516C187.972 24.1391 187.867 24.3935 187.867 24.6587C187.852 24.7413 187.852 24.826 187.867 24.9087C187.664 24.9594 187.477 25.0629 187.327 25.2087C187.225 25.1565 187.112 25.129 186.997 25.1287C186.907 25.1287 186.817 25.1466 186.734 25.1814C186.651 25.2162 186.576 25.2672 186.512 25.3314C186.449 25.3956 186.399 25.4717 186.366 25.5554C186.332 25.6391 186.316 25.7286 186.317 25.8187C186.316 25.9084 186.332 25.9974 186.366 26.0805C186.4 26.1636 186.45 26.2391 186.513 26.3025C186.576 26.3659 186.652 26.416 186.735 26.4497C186.818 26.4834 186.907 26.5 186.997 26.4987H187.177C187.292 26.6571 187.442 26.7865 187.615 26.8767C187.789 26.967 187.981 27.0156 188.177 27.0187C188.481 27.038 188.781 26.9365 189.012 26.7362C189.242 26.5359 189.384 26.253 189.407 25.9487C189.406 25.7649 189.354 25.5849 189.257 25.4287C189.425 25.378 189.574 25.277 189.683 25.1394C189.792 25.0017 189.856 24.834 189.867 24.6587Z" fill="#F3B952"/>
<path d="M194.997 15.5687C195.779 14.8005 196.225 13.7541 196.238 12.6581C196.251 11.5621 195.83 10.5054 195.067 9.71866C194.408 8.84015 193.429 8.25777 192.342 8.09854C191.255 7.93931 190.15 8.21614 189.267 8.86866C188.982 9.11802 188.738 9.4118 188.547 9.73866C187.781 9.19397 186.89 8.85015 185.957 8.73866C185.858 8.24671 185.635 7.78855 185.307 7.40866C185.044 7.10268 184.724 6.85143 184.364 6.66925C184.004 6.48707 183.612 6.37754 183.21 6.34689C182.808 6.31625 182.404 6.3651 182.021 6.49066C181.638 6.61622 181.283 6.81602 180.977 7.07866C180.671 7.34131 180.42 7.66165 180.237 8.02139C180.055 8.38114 179.946 8.77324 179.915 9.17532C179.884 9.5774 179.933 9.98157 180.059 10.3648C180.184 10.748 180.384 11.1027 180.647 11.4087C180.825 11.6055 181.027 11.7801 181.247 11.9287C181.038 12.8168 181.046 13.7421 181.271 14.6264C181.495 15.5106 181.93 16.3278 182.537 17.0087C184.537 19.3087 187.717 19.7887 189.717 18.0787C190.335 17.5507 190.79 16.8567 191.027 16.0787C191.671 16.3703 192.383 16.4771 193.084 16.387C193.785 16.2969 194.448 16.0136 194.997 15.5687V15.5687Z" fill="#FFF0C2"/>
<path d="M199.897 9.96869C200.677 9.19747 201.122 8.14993 201.135 7.05306C201.148 5.95618 200.728 4.89832 199.967 4.10869C199.308 3.23239 198.33 2.65221 197.245 2.49483C196.16 2.33745 195.057 2.61565 194.177 3.26869C193.886 3.51147 193.639 3.80236 193.447 4.12869C192.68 3.59279 191.795 3.24976 190.867 3.12869C190.756 2.64113 190.533 2.18592 190.217 1.79869C189.686 1.18073 188.932 0.7988 188.12 0.736913C187.308 0.675026 186.505 0.938253 185.887 1.46869C185.269 1.99912 184.887 2.75331 184.825 3.56534C184.763 4.37737 185.026 5.18073 185.557 5.79869C185.726 6.00061 185.925 6.1759 186.147 6.31869C185.941 7.20692 185.95 8.13163 186.175 9.01544C186.399 9.89925 186.832 10.7165 187.437 11.3987C189.437 13.6987 192.617 14.1887 194.617 12.4787C195.235 11.9507 195.69 11.2567 195.927 10.4787C196.57 10.7738 197.283 10.8824 197.985 10.7923C198.687 10.7021 199.349 10.4168 199.897 9.96869V9.96869Z" fill="#FFF0C2"/>
<path d="M186.997 18.2587C187.779 17.4888 188.226 16.4408 188.239 15.3431C188.252 14.2455 187.831 13.1871 187.067 12.3987C186.405 11.524 185.425 10.9453 184.339 10.788C183.254 10.6308 182.15 10.9077 181.267 11.5587C180.982 11.8081 180.738 12.1019 180.547 12.4287C179.781 11.884 178.89 11.5402 177.957 11.4287C177.858 10.9368 177.635 10.4786 177.307 10.0987C176.776 9.4821 176.023 9.10144 175.212 9.04049C174.401 8.97954 173.598 9.24329 172.982 9.77373C172.365 10.3042 171.985 11.0578 171.924 11.8689C171.863 12.68 172.126 13.4821 172.657 14.0987C172.832 14.2954 173.03 14.47 173.247 14.6187C173.038 15.5068 173.046 16.4322 173.271 17.3164C173.495 18.2007 173.93 19.0178 174.537 19.6987C176.537 21.9987 179.717 22.4787 181.717 20.7687C182.338 20.2434 182.794 19.5485 183.027 18.7687C183.671 19.0604 184.383 19.1671 185.084 19.0771C185.785 18.987 186.448 18.7036 186.997 18.2587V18.2587Z" fill="#FFF0C2"/>
<path d="M206.407 24.0587C207.187 23.2875 207.632 22.2399 207.645 21.143C207.658 20.0462 207.238 18.9883 206.477 18.1987C205.816 17.3224 204.837 16.7417 203.751 16.5826C202.666 16.4235 201.561 16.6987 200.677 17.3487C200.394 17.6002 200.151 17.8936 199.957 18.2187C199.192 17.6725 198.301 17.3285 197.367 17.2187C197.25 16.7369 197.013 16.2929 196.677 15.9287C196.414 15.6234 196.094 15.3727 195.735 15.1912C195.375 15.0096 194.983 14.9006 194.582 14.8704C194.18 14.8403 193.776 14.8895 193.394 15.0153C193.011 15.1411 192.657 15.341 192.352 15.6037C192.047 15.8663 191.796 16.1865 191.614 16.546C191.433 16.9055 191.324 17.2973 191.294 17.6989C191.263 18.1005 191.313 18.5041 191.438 18.8867C191.564 19.2693 191.764 19.6234 192.027 19.9287C192.199 20.128 192.397 20.3029 192.617 20.4487C192.408 21.3368 192.416 22.2621 192.641 23.1464C192.865 24.0306 193.3 24.8478 193.907 25.5287C195.907 27.8287 199.087 28.3087 201.087 26.6087C201.705 26.0807 202.16 25.3867 202.397 24.6087C203.049 24.903 203.772 25.0075 204.481 24.9102C205.19 24.8129 205.858 24.5178 206.407 24.0587V24.0587Z" fill="#FFF0C2"/>
<path d="M203.967 22.3787C204.239 22.0526 204.388 21.6413 204.387 21.2166C204.387 20.7919 204.237 20.3809 203.964 20.0555C203.691 19.7302 203.312 19.5111 202.894 19.4367C202.476 19.3624 202.045 19.4374 201.677 19.6487C201.559 19.7483 201.457 19.8665 201.377 19.9987C201.05 19.7628 200.668 19.6148 200.267 19.5687C200.228 19.3693 200.139 19.1833 200.007 19.0287C199.904 18.8944 199.774 18.7826 199.626 18.6999C199.478 18.6173 199.315 18.5656 199.147 18.5479C198.978 18.5303 198.808 18.5471 198.646 18.5973C198.484 18.6475 198.334 18.73 198.205 18.84C198.076 18.9499 197.971 19.0848 197.896 19.2367C197.821 19.3885 197.777 19.554 197.768 19.7232C197.759 19.8923 197.784 20.0616 197.842 20.2207C197.901 20.3798 197.991 20.5254 198.107 20.6487C198.175 20.731 198.256 20.8019 198.347 20.8587C198.261 21.2224 198.265 21.6015 198.357 21.9636C198.449 22.3258 198.628 22.6603 198.877 22.9387C199.208 23.3845 199.702 23.681 200.251 23.7635C200.8 23.8459 201.36 23.7076 201.807 23.3787C202.061 23.1596 202.245 22.8711 202.337 22.5487C202.598 22.6732 202.888 22.7232 203.176 22.6932C203.463 22.6632 203.737 22.5544 203.967 22.3787V22.3787Z" fill="#F3B952"/>
<path d="M168.047 13.7687C167.378 14.635 167.078 15.7306 167.213 16.8169C167.348 17.9032 167.906 18.8923 168.767 19.5687C169.546 20.3418 170.599 20.7756 171.697 20.7756C172.795 20.7756 173.848 20.3418 174.627 19.5687C174.886 19.2746 175.089 18.9357 175.227 18.5687C176.059 18.9917 176.984 19.198 177.917 19.1687C178.088 19.6411 178.369 20.0662 178.737 20.4087C179.35 20.9071 180.132 21.15 180.919 21.0866C181.707 21.0233 182.44 20.6586 182.966 20.0686C183.491 19.4785 183.769 18.7085 183.742 17.9188C183.714 17.129 183.383 16.3804 182.817 15.8287C182.616 15.6549 182.394 15.507 182.157 15.3887C182.239 14.4789 182.1 13.5629 181.752 12.7184C181.403 11.874 180.856 11.1262 180.157 10.5387C177.897 8.53866 174.647 8.47866 172.897 10.4387C172.36 11.0613 172.013 11.8248 171.897 12.6387C171.214 12.4479 170.491 12.4526 169.81 12.6524C169.129 12.8521 168.519 13.2389 168.047 13.7687V13.7687Z" fill="#FFF0C2"/>
<path d="M173.517 16.0286C173.31 16.3204 173.218 16.6784 173.259 17.0337C173.3 17.3891 173.471 17.7167 173.739 17.9536C174.007 18.1906 174.353 18.3201 174.711 18.3174C175.069 18.3146 175.413 18.1797 175.677 17.9386C175.755 17.8417 175.819 17.7339 175.867 17.6186C176.136 17.7565 176.435 17.8252 176.737 17.8186C176.793 17.972 176.886 18.1093 177.007 18.2186C177.208 18.3646 177.456 18.4305 177.703 18.4035C177.95 18.3765 178.178 18.2585 178.343 18.0725C178.508 17.8866 178.597 17.6459 178.594 17.3975C178.591 17.1491 178.496 16.9106 178.327 16.7286L178.097 16.5686C178.121 16.275 178.076 15.9798 177.965 15.7069C177.854 15.4341 177.68 15.1914 177.457 14.9986C177.144 14.686 176.719 14.5104 176.277 14.5104C175.834 14.5104 175.41 14.686 175.097 14.9986C174.92 15.1982 174.805 15.4449 174.767 15.7086C174.549 15.6421 174.317 15.6368 174.097 15.6932C173.876 15.7497 173.676 15.8657 173.517 16.0286V16.0286Z" fill="#F3B952"/>
<path d="M163.027 20.5686C163.125 21.2357 163.46 21.8453 163.97 22.286C164.481 22.7266 165.133 22.9691 165.807 22.9691C166.481 22.9691 167.133 22.7266 167.643 22.286C168.154 21.8453 168.489 21.2357 168.587 20.5686C168.58 20.3299 168.536 20.0938 168.457 19.8686C169.021 19.7067 169.536 19.4078 169.957 18.9986C170.239 19.1429 170.55 19.2183 170.867 19.2186C171.133 19.2332 171.399 19.1928 171.648 19.1001C171.898 19.0075 172.126 18.8644 172.317 18.6799C172.509 18.4954 172.661 18.2733 172.764 18.0276C172.866 17.7818 172.917 17.5176 172.913 17.2515C172.908 16.9853 172.85 16.7228 172.74 16.4803C172.63 16.2379 172.471 16.0206 172.273 15.8422C172.076 15.6637 171.844 15.5277 171.592 15.4428C171.339 15.3579 171.072 15.3259 170.807 15.3486C170.641 15.3598 170.477 15.3866 170.317 15.4286C169.966 14.9698 169.511 14.6016 168.989 14.3545C168.467 14.1075 167.894 13.9889 167.317 14.0086C166.459 13.9675 165.62 14.2654 164.98 14.8379C164.34 15.4105 163.951 16.2117 163.897 17.0686C163.909 17.586 164.068 18.0891 164.357 18.5186C163.972 18.7099 163.645 19.0011 163.411 19.3617C163.177 19.7223 163.045 20.1391 163.027 20.5686V20.5686Z" fill="#FFF0C2"/>
<path d="M170.677 18.1286C170.123 17.6811 169.454 17.3981 168.747 17.3114C168.04 17.2248 167.323 17.3382 166.677 17.6386C165.793 18.152 165.134 18.9777 164.828 19.9531C164.523 20.9285 164.594 21.9828 165.027 22.9086C165.278 22.9741 165.537 23.0044 165.797 22.9986C166.489 23.0453 167.171 22.8157 167.694 22.3602C168.217 21.9047 168.538 21.2604 168.587 20.5686C168.58 20.3299 168.536 20.0937 168.457 19.8686C169.021 19.7066 169.536 19.4078 169.957 18.9986C170.239 19.1429 170.55 19.2183 170.867 19.2186C171.124 19.2147 171.378 19.1597 171.614 19.0567C171.85 18.9537 172.063 18.8048 172.241 18.6187C172.419 18.4325 172.557 18.2129 172.65 17.9725C172.742 17.7321 172.785 17.4758 172.777 17.2186C172.766 16.9421 172.702 16.6704 172.587 16.4186H172.457C171.709 16.8024 171.09 17.3969 170.677 18.1286V18.1286Z" fill="#FFC717"/>
<path d="M167.167 18.6287C166.22 19.1858 165.533 20.0945 165.253 21.1567C164.974 22.2189 165.126 23.3483 165.677 24.2987C165.882 24.8037 166.185 25.2632 166.568 25.6508C166.952 26.0384 167.408 26.3466 167.91 26.5575C168.413 26.7684 168.952 26.8779 169.497 26.8799C170.043 26.8818 170.583 26.7761 171.087 26.5687C171.43 26.4048 171.742 26.1813 172.007 25.9087C172.619 26.6132 173.4 27.1501 174.277 27.4687C174.262 27.97 174.368 28.4675 174.587 28.9187C174.766 29.2786 175.014 29.5995 175.318 29.8634C175.621 30.1272 175.973 30.3287 176.355 30.4564C176.736 30.5841 177.138 30.6354 177.539 30.6075C177.94 30.5796 178.332 30.473 178.692 30.2937C179.052 30.1145 179.373 29.8661 179.637 29.5628C179.9 29.2595 180.102 28.9072 180.23 28.526C180.357 28.1448 180.409 27.7422 180.381 27.3412C180.353 26.9402 180.246 26.5486 180.067 26.1887C179.947 25.9525 179.796 25.7338 179.617 25.5387C180.039 24.73 180.26 23.8311 180.26 22.9187C180.26 22.0063 180.039 21.1075 179.617 20.2987C178.267 17.5887 175.267 16.2987 172.917 17.5087C172.18 17.8807 171.565 18.4569 171.147 19.1687C170.6 18.717 169.937 18.4271 169.234 18.3317C168.531 18.2363 167.815 18.3392 167.167 18.6287V18.6287Z" fill="#FFF0C2"/>
<path d="M151.347 23.9487C151.045 25.0028 151.169 26.1334 151.693 27.0967C152.217 28.0601 153.098 28.7791 154.147 29.0987C155.151 29.5409 156.29 29.5684 157.314 29.175C158.339 28.7817 159.166 27.9994 159.617 26.9987C159.755 26.6448 159.826 26.2684 159.827 25.8887C160.758 25.9771 161.696 25.8328 162.557 25.4687C162.901 25.8786 163.349 26.1889 163.853 26.3675C164.358 26.5462 164.901 26.5866 165.426 26.4845C165.952 26.3825 166.44 26.1418 166.841 25.7873C167.242 25.4329 167.541 24.9776 167.707 24.4687C167.881 24.0292 167.949 23.5548 167.905 23.084C167.862 22.6133 167.707 22.1596 167.455 21.7599C167.202 21.3602 166.859 21.0258 166.453 20.784C166.046 20.5423 165.589 20.3999 165.117 20.3687C164.866 19.493 164.407 18.6906 163.781 18.0292C163.154 17.3679 162.378 16.8669 161.517 16.5687C158.677 15.5687 155.677 16.6987 154.727 19.1587C154.44 19.9296 154.388 20.7681 154.577 21.5687C153.87 21.6257 153.194 21.8786 152.623 22.2991C152.053 22.7195 151.611 23.2908 151.347 23.9487V23.9487Z" fill="#FFF0C2"/>
<path d="M156.107 23.9386C156.044 24.1574 156.068 24.3922 156.174 24.5936C156.28 24.795 156.461 24.9474 156.677 25.0186C156.782 25.0666 156.896 25.093 157.012 25.0963C157.128 25.0996 157.243 25.0797 157.352 25.0377C157.46 24.9958 157.558 24.9327 157.642 24.8522C157.725 24.7716 157.791 24.6752 157.837 24.5686C157.863 24.491 157.88 24.4104 157.887 24.3286C158.081 24.3486 158.276 24.3211 158.457 24.2486C158.531 24.3314 158.625 24.3936 158.73 24.429C158.835 24.4645 158.948 24.472 159.057 24.4508C159.166 24.4296 159.267 24.3805 159.351 24.3082C159.435 24.236 159.499 24.1431 159.537 24.0386C159.595 23.8795 159.588 23.7038 159.516 23.5501C159.445 23.3964 159.316 23.2772 159.157 23.2186H158.987C158.936 23.0356 158.841 22.8679 158.71 22.7301C158.58 22.5924 158.417 22.4888 158.237 22.4286C158.108 22.3703 157.969 22.338 157.828 22.3335C157.687 22.3291 157.546 22.3527 157.414 22.4029C157.282 22.4531 157.162 22.5289 157.059 22.626C156.957 22.7231 156.874 22.8396 156.817 22.9686C156.767 23.1315 156.767 23.3057 156.817 23.4686C156.667 23.4733 156.521 23.5198 156.395 23.6028C156.27 23.6858 156.17 23.8021 156.107 23.9386V23.9386Z" fill="#F3B952"/>
<path d="M216.137 60.9987C216.209 59.9261 216.046 58.8508 215.657 57.8485C215.268 56.8463 214.664 55.9417 213.887 55.1987C213.444 54.7691 212.873 54.4963 212.261 54.4223C211.649 54.3482 211.029 54.4769 210.497 54.7887L206.857 56.8787C206.601 57.026 206.379 57.2261 206.206 57.4658C206.034 57.7054 205.914 57.9791 205.855 58.2686C205.797 58.5581 205.8 58.8568 205.866 59.1447C205.932 59.4327 206.058 59.7034 206.237 59.9387L207.147 61.1187C206.513 61.2788 205.927 61.5921 205.442 62.0311C204.957 62.4701 204.587 63.0214 204.364 63.6367C204.142 64.2519 204.074 64.9124 204.166 65.5601C204.258 66.2078 204.507 66.8231 204.893 67.352C205.278 67.8808 205.787 68.3071 206.375 68.5935C206.963 68.8799 207.613 69.0176 208.267 68.9945C208.921 68.9715 209.559 68.7885 210.125 68.4614C210.692 68.1344 211.17 67.6733 211.517 67.1187C212.072 67.7281 212.753 68.2099 213.513 68.5309C214.273 68.852 215.093 69.0048 215.917 68.9787C218.807 68.9787 221.147 67.1787 221.147 64.9787C221.147 62.7787 218.927 61.0887 216.137 60.9987ZM211.937 62.4187C211.787 62.5485 211.647 62.6889 211.517 62.8387C211.418 62.6927 211.311 62.5525 211.197 62.4187H211.937Z" fill="#FFF0C2"/>
<path d="M213.677 62.7487C213.886 62.4556 214.03 62.1205 214.097 61.7666C214.164 61.4126 214.154 61.0483 214.067 60.6987C214.018 60.4975 213.905 60.3178 213.744 60.1876C213.583 60.0575 213.384 59.984 213.177 59.9788H211.757C211.659 59.977 211.562 59.9958 211.471 60.0341C211.381 60.0723 211.3 60.1291 211.233 60.2008C211.166 60.2724 211.115 60.3573 211.083 60.45C211.051 60.5427 211.038 60.6411 211.047 60.7387V61.2387C210.837 61.1706 210.613 61.155 210.396 61.1933C210.179 61.2316 209.974 61.3227 209.8 61.4584C209.626 61.5942 209.488 61.7706 209.398 61.9721C209.308 62.1737 209.268 62.3942 209.283 62.6144C209.298 62.8347 209.367 63.0479 209.484 63.2354C209.6 63.4229 209.761 63.5789 209.952 63.6899C210.142 63.8009 210.358 63.8633 210.578 63.8718C210.799 63.8804 211.018 63.8347 211.217 63.7387C211.269 64.0109 211.379 64.2686 211.54 64.4945C211.7 64.7205 211.907 64.9095 212.147 65.0488C212.47 65.3047 212.881 65.4248 213.291 65.3837C213.702 65.3427 214.08 65.1437 214.347 64.8287C214.53 64.4634 214.562 64.0408 214.437 63.6518C214.312 63.2629 214.039 62.9386 213.677 62.7487V62.7487ZM212.227 62.4087H212.037C212.042 62.3488 212.042 62.2887 212.037 62.2288L212.227 62.4087Z" fill="#F3B952"/>
<path d="M191.317 9.32872C191.407 7.16872 190.157 6.47872 189.587 5.53872C189.526 5.38579 189.427 5.25038 189.301 5.14455C189.175 5.03871 189.024 4.96573 188.863 4.93208C188.702 4.89843 188.535 4.90517 188.376 4.95169C188.218 4.99821 188.074 5.08306 187.957 5.19872L186.197 6.87872C185.928 7.22314 185.759 7.63453 185.708 8.06822C185.657 8.50191 185.726 8.94131 185.907 9.33872L186.337 10.2887C185.834 10.6254 185.432 11.0929 185.175 11.6409C184.918 12.1889 184.815 12.7966 184.877 13.3987C184.877 15.1787 185.747 16.6187 186.817 16.6187C187.507 16.6187 188.307 17.5187 188.647 16.6187C189.097 17.5187 189.647 16.6187 190.567 16.6187C191.957 16.6187 193.087 15.1787 193.087 13.3987C193.087 11.6187 192.677 9.39872 191.317 9.32872ZM188.647 11.3287C188.574 11.4351 188.508 11.5452 188.447 11.6587C188.4 11.5459 188.346 11.4357 188.287 11.3287H188.647Z" fill="#FFF0C2"/>
<path d="M192.517 13.4987C192.517 12.2187 192.197 10.5587 191.207 10.4987C191.234 10.0933 191.175 9.68685 191.033 9.30596C190.892 8.92507 190.672 8.57839 190.387 8.2887L189.957 8.6987C189.757 8.95104 189.631 9.25347 189.593 9.57278C189.554 9.89209 189.604 10.2159 189.737 10.5087L190.057 11.2087C189.688 11.4579 189.394 11.8025 189.205 12.2058C189.017 12.609 188.941 13.0559 188.987 13.4987C188.987 14.8087 189.627 15.8687 190.407 15.8687H190.527H190.667C191.223 15.7914 191.727 15.5008 192.072 15.0584C192.417 14.616 192.577 14.0567 192.517 13.4987V13.4987ZM191.517 11.9687H191.777L191.627 12.2187C191.59 12.1322 191.546 12.0487 191.497 11.9687H191.517Z" fill="#FFC717"/>
<path d="M177.127 10.4186C177.412 11.1127 177.855 11.7308 178.421 12.2238C178.987 12.7167 179.66 13.0711 180.387 13.2586C180.834 13.3769 181.306 13.3571 181.742 13.2018C182.177 13.0465 182.556 12.763 182.827 12.3886L184.677 9.89864C184.809 9.73828 184.902 9.54962 184.949 9.34734C184.997 9.14506 184.996 8.93462 184.949 8.73239C184.902 8.53015 184.808 8.34159 184.676 8.18137C184.544 8.02115 184.376 7.8936 184.187 7.80864L183.187 7.37864C183.699 6.9994 184.067 6.45729 184.231 5.84129C184.394 5.2253 184.344 4.57201 184.087 3.98864C183.717 3.31347 183.095 2.81233 182.356 2.59492C181.618 2.37751 180.823 2.46155 180.147 2.82864C179.697 3.04 179.304 3.35508 179 3.74797C178.696 4.14085 178.489 4.60033 178.397 5.08864C177.815 4.89935 177.2 4.82924 176.59 4.8825C175.98 4.93576 175.387 5.1113 174.847 5.39864C172.847 6.34864 171.847 8.23864 172.477 9.60864C173.107 10.9786 175.207 11.2786 177.127 10.4186ZM179.567 8.15864C179.63 8.02964 179.684 7.89591 179.727 7.75864L180.077 7.91864L179.567 8.15864Z" fill="#FFF0C2"/>
<path d="M183.677 6.74863H183.747C183.816 6.65928 183.879 6.56577 183.937 6.46863L183.677 6.74863Z" fill="#FFC717"/>
<path d="M180.217 7.12866C180.17 7.26467 180.117 7.39818 180.057 7.52866L180.567 7.27866C180.446 7.23901 180.329 7.18882 180.217 7.12866Z" fill="#FFC717"/>
<path d="M179.307 3.48865C179.038 3.74752 178.818 4.05231 178.657 4.38865L178.927 4.45865C178.994 4.11497 179.122 3.78629 179.307 3.48865V3.48865Z" fill="#FFC717"/>
<path d="M180.877 12.6187C180.151 12.4329 179.478 12.0804 178.912 11.5891C178.346 11.0978 177.903 10.4814 177.617 9.78872C175.687 10.6487 173.617 10.3087 173.007 8.96873C172.845 8.57736 172.787 8.15109 172.838 7.73082C172.889 7.31055 173.047 6.91038 173.297 6.56873C172.883 6.93402 172.587 7.41483 172.448 7.94941C172.309 8.48398 172.333 9.0479 172.517 9.56873C173.167 10.8987 175.207 11.2387 177.127 10.3787C177.412 11.0728 177.855 11.6909 178.421 12.1839C178.987 12.6768 179.66 13.0312 180.387 13.2187C180.834 13.337 181.306 13.3172 181.742 13.1619C182.177 13.0066 182.556 12.7231 182.827 12.3487L183.207 11.8487C182.932 12.1859 182.567 12.4375 182.154 12.5739C181.741 12.7104 181.298 12.7259 180.877 12.6187V12.6187Z" fill="#FFC717"/>
<path d="M178.407 7.97868C178.484 8.16798 178.605 8.33637 178.76 8.47016C178.914 8.60395 179.098 8.69938 179.297 8.74868C179.417 8.77978 179.544 8.77453 179.662 8.7336C179.779 8.69267 179.882 8.61789 179.957 8.51868L180.467 7.83868C180.502 7.7944 180.527 7.74255 180.539 7.68715C180.552 7.63174 180.551 7.57427 180.537 7.51918C180.524 7.46408 180.498 7.41283 180.461 7.3694C180.425 7.32596 180.379 7.2915 180.327 7.26868L180.067 7.14868C180.206 7.04548 180.305 6.8981 180.348 6.73085C180.392 6.5636 180.377 6.38647 180.307 6.22868C180.206 6.04614 180.036 5.91107 179.836 5.85298C179.635 5.7949 179.42 5.81852 179.237 5.91868C179.115 5.97483 179.009 6.05964 178.927 6.16588C178.845 6.27211 178.79 6.3966 178.767 6.52868C178.603 6.47456 178.431 6.45375 178.259 6.46749C178.087 6.48123 177.92 6.52924 177.767 6.60868C177.227 6.86868 176.947 7.37868 177.127 7.75868C177.307 8.13868 177.887 8.20868 178.407 7.97868ZM179.067 7.35868C179.07 7.32545 179.07 7.29192 179.067 7.25868H179.157L179.067 7.35868Z" fill="#F3B952"/>
</g>
<g clip-path="url(#clip1)">
<path d="M120.834 85.6579C120.656 85.6595 120.481 85.6224 120.318 85.5492C120.156 85.476 120.012 85.3685 119.894 85.2338C119.777 85.0989 119.689 84.9399 119.638 84.7676C119.587 84.5954 119.573 84.414 119.598 84.236L120.216 79.8704L118.139 84.8596C118.044 85.087 117.883 85.2807 117.679 85.4162C117.474 85.5516 117.234 85.6228 116.989 85.6205H112.761C112.595 85.6198 112.43 85.5853 112.277 85.5188C112.124 85.4524 111.986 85.3554 111.871 85.2338C111.756 85.1133 111.666 84.9705 111.606 84.8141C111.547 84.6576 111.519 84.4907 111.525 84.3233L111.797 78.2239L109.325 84.8097C109.236 85.0485 109.077 85.2542 108.87 85.3991C108.662 85.5441 108.415 85.6213 108.162 85.6205H105.69C105.491 85.6191 105.295 85.5694 105.12 85.4754C104.944 85.3815 104.793 85.2461 104.68 85.0808C104.567 84.9155 104.496 84.7252 104.471 84.526C104.447 84.3268 104.471 84.1246 104.54 83.9366L108.422 73.3345C107.895 73.351 107.37 73.2566 106.882 73.0572C106.393 72.8578 105.951 72.5579 105.583 72.1765C105.216 71.7951 104.931 71.3406 104.747 70.842C104.563 70.3435 104.484 69.8117 104.515 69.2807C104.565 67.5828 105.174 65.95 106.246 64.6407C107.365 63.1736 108.787 61.9692 110.412 61.1108C111.998 60.2339 113.772 59.7628 115.58 59.7388C116.525 59.7483 117.462 59.9213 118.349 60.2502C118.6 60.3413 118.816 60.512 118.963 60.7369C119.11 60.9617 119.181 61.2286 119.165 61.4975L118.757 70.9272L122.886 60.9487C122.979 60.7209 123.136 60.5259 123.339 60.3883C123.541 60.2507 123.779 60.1766 124.024 60.1753H128.474C128.652 60.1738 128.828 60.2108 128.99 60.284C129.152 60.3572 129.296 60.4648 129.414 60.5994C129.529 60.7354 129.615 60.8949 129.664 61.0671C129.713 61.2393 129.724 61.4201 129.698 61.5973L126.447 84.5478C126.405 84.8475 126.256 85.1216 126.029 85.3189C125.801 85.5163 125.51 85.6235 125.21 85.6205L120.834 85.6579ZM110.944 66.2872C110.319 67.1951 109.963 68.2636 109.918 69.368L111.154 66.0377C111.087 66.1077 111.025 66.1828 110.969 66.2622L110.944 66.2872Z" fill="white"/>
<path d="M115.58 60.9986C116.386 61.0085 117.184 61.156 117.941 61.4351L117.224 77.8747L124.024 61.4351H128.474L125.272 84.4106H120.834L122.8 70.4158L116.989 84.4106H112.761L113.379 70.3534L108.162 84.4106H105.69L113.54 62.9942C112.088 63.4309 110.817 64.3329 109.918 65.5637C109.047 66.8731 108.614 68.4289 108.682 70.0042C108.647 70.5533 108.719 71.1039 108.892 71.6256C108.992 71.7922 109.067 71.973 109.114 72.162C106.914 72.162 105.801 71.214 105.801 69.3181C105.852 67.8964 106.37 66.532 107.272 65.439C108.284 64.1139 109.571 63.0283 111.043 62.2583C112.446 61.4656 114.022 61.037 115.629 61.011L115.58 60.9986ZM115.629 58.5164C113.622 58.5383 111.652 59.0611 109.893 60.0381C108.099 60.9736 106.533 62.2984 105.307 63.9173C104.07 65.4407 103.374 67.3373 103.329 69.3057C103.28 70.4078 103.594 71.4952 104.222 72.398C104.851 73.3007 105.758 73.9678 106.803 74.2949L103.428 83.525C103.287 83.8988 103.237 84.3012 103.283 84.6983C103.328 85.0955 103.468 85.4758 103.69 85.8072C103.912 86.1385 104.209 86.4112 104.557 86.6023C104.905 86.7934 105.294 86.8973 105.69 86.9052H108.162C108.646 86.9059 109.12 86.7632 109.524 86.4949C109.929 86.2266 110.246 85.8445 110.437 85.396C110.557 85.6663 110.72 85.915 110.919 86.1319C111.151 86.3766 111.429 86.5714 111.737 86.7043C112.045 86.8373 112.377 86.9056 112.712 86.9052H116.94C117.307 86.9046 117.67 86.8215 118.001 86.6618C118.333 86.5022 118.625 86.27 118.856 85.9822V86.0446C119.089 86.3161 119.378 86.5336 119.702 86.6822C120.027 86.8307 120.379 86.9068 120.735 86.9052H125.173C125.773 86.9112 126.355 86.6968 126.81 86.3021C127.265 85.9074 127.562 85.3592 127.646 84.7598L130.897 61.8093C130.947 61.4537 130.92 61.0913 130.818 60.7471C130.717 60.4029 130.542 60.0849 130.308 59.8149C130.073 59.5449 129.783 59.3292 129.458 59.1826C129.133 59.036 128.781 58.9619 128.425 58.9654H123.974C123.485 58.9644 123.007 59.1096 122.6 59.3827C122.193 59.6557 121.875 60.0444 121.687 60.4996L120.253 63.9796L120.352 61.5723C120.383 61.0345 120.241 60.5008 119.947 60.0511C119.653 59.6015 119.223 59.2599 118.72 59.0777C117.698 58.6987 116.619 58.5004 115.531 58.4915L115.629 58.5164Z" fill="#373737"/>
<path d="M132.504 85.7576C130.896 85.8334 129.317 85.2995 128.078 84.2609C127.466 83.657 126.992 82.9257 126.689 82.1178C126.386 81.3099 126.261 80.445 126.323 79.5835C126.363 77.8431 126.68 76.1206 127.263 74.482C127.878 72.5913 128.938 70.8793 130.353 69.4927C131.103 68.7568 131.992 68.18 132.966 67.7965C133.941 67.413 134.982 67.2306 136.028 67.26C137.808 67.26 140.676 67.9336 141.158 72.2493C141.519 72.167 141.87 72.05 142.209 71.9C142.974 71.5935 143.701 71.1957 144.372 70.7151C144.582 70.567 144.833 70.4886 145.089 70.4906C145.216 70.4723 145.345 70.4723 145.473 70.4906C145.657 70.5515 145.825 70.6555 145.963 70.7942C146.1 70.9329 146.203 71.1024 146.264 71.2889L146.536 72.137C146.608 72.3493 146.621 72.5771 146.576 72.7966C146.53 73.0162 146.427 73.2192 146.276 73.3843C145.499 74.1936 144.576 74.8456 143.556 75.3052C142.766 75.6823 141.937 75.9709 141.084 76.1658C140.908 77.7109 140.491 79.2181 139.848 80.6312C139.173 82.1162 138.135 83.4038 136.831 84.3731C135.578 85.3002 134.058 85.7866 132.504 85.7576V85.7576ZM133.518 80.4441H133.741C133.802 80.4441 133.988 80.3693 134.297 80.02C134.763 79.4293 135.127 78.7629 135.372 78.0493C135.637 77.3325 135.84 76.5938 135.978 75.8415C135.735 75.5828 135.546 75.277 135.422 74.9426C135.299 74.6082 135.244 74.2521 135.261 73.8957C135.235 73.1788 135.453 72.4746 135.879 71.9C135.671 72.1006 135.488 72.3269 135.335 72.5736C134.715 73.5826 134.248 74.68 133.951 75.8291C133.62 76.9134 133.437 78.0379 133.407 79.1718C133.391 79.599 133.428 80.0264 133.518 80.4441V80.4441Z" fill="white"/>
<path d="M136.028 68.5198C138.673 68.5198 139.996 70.1829 139.996 73.5091C140.106 73.5286 140.219 73.5286 140.33 73.5091C141.14 73.4772 141.937 73.291 142.679 72.9602C143.552 72.6199 144.382 72.176 145.151 71.6381L145.423 72.4738C144.761 73.1657 143.972 73.7207 143.099 74.1077C142.1 74.5706 141.044 74.8938 139.959 75.0682C139.855 76.794 139.436 78.4855 138.723 80.0574C138.137 81.3565 137.236 82.485 136.102 83.3379C135.084 84.0823 133.86 84.4839 132.603 84.4854C131.296 84.5545 130.01 84.1323 128.993 83.3004C128.515 82.812 128.147 82.2242 127.917 81.578C127.686 80.9318 127.598 80.2426 127.658 79.5585C127.697 77.9545 127.989 76.3671 128.524 74.8561C129.084 73.1615 130.038 71.6263 131.305 70.3783C131.943 69.7549 132.698 69.2671 133.527 68.9435C134.355 68.62 135.239 68.4674 136.126 68.4948L136.028 68.5198ZM133.839 81.6789C134.134 81.6533 134.419 81.5629 134.676 81.4143C134.932 81.2656 135.153 81.0622 135.323 80.8183C135.887 80.1232 136.327 79.3338 136.621 78.4858C137.019 77.4247 137.289 76.3191 137.425 75.1929C136.868 75.0682 136.596 74.6316 136.596 73.8832C136.558 73.537 136.63 73.1875 136.801 72.885C136.972 72.5824 137.233 72.3423 137.548 72.1994C137.56 71.7072 137.454 71.2195 137.239 70.7774C137.145 70.6415 137.015 70.5338 136.865 70.4658C136.715 70.3977 136.55 70.3718 136.386 70.3908C135.694 70.3908 135.039 70.8897 134.396 71.8875C133.712 73.0036 133.191 74.2135 132.85 75.4798C132.495 76.6746 132.299 77.9122 132.269 79.1594C132.21 79.8465 132.325 80.5375 132.603 81.1675C132.751 81.3493 132.942 81.4912 133.157 81.5805C133.373 81.6697 133.608 81.7035 133.839 81.6789V81.6789ZM136.126 66.0002C134.92 65.9701 133.72 66.1842 132.596 66.6298C131.473 67.0754 130.45 67.7435 129.587 68.5946C128.036 70.1145 126.87 71.9882 126.187 74.0579C125.564 75.8256 125.226 77.6827 125.186 79.5585C125.119 80.5966 125.278 81.637 125.652 82.6066C126.025 83.5762 126.605 84.4515 127.349 85.1714C128.818 86.4091 130.69 87.0535 132.603 86.98C134.38 86.9829 136.112 86.415 137.548 85.3585C139.025 84.2713 140.2 82.8196 140.96 81.1426C141.548 79.8741 141.964 78.5316 142.196 77.1512C142.865 76.9547 143.518 76.7088 144.15 76.4153C145.311 75.886 146.364 75.1414 147.253 74.22C147.556 73.891 147.765 73.4855 147.859 73.0464C147.952 72.6074 147.927 72.151 147.784 71.7254L147.512 70.8772C147.39 70.5066 147.183 70.1702 146.908 69.8951C146.633 69.6199 146.298 69.4137 145.93 69.2931C145.681 69.2183 145.423 69.1805 145.163 69.1809C144.65 69.1806 144.148 69.3419 143.729 69.6424C143.227 69.995 142.693 70.2999 142.135 70.5529C141.834 69.1922 141.06 67.9851 139.953 67.1501C138.847 66.315 137.481 65.9071 136.102 66.0002H136.126Z" fill="#373737"/>
<path d="M145.089 85.82C143.765 85.8829 142.466 85.4372 141.455 84.5727C140.972 84.097 140.597 83.5222 140.354 82.8874C140.111 82.2526 140.005 81.5725 140.045 80.8931C140.046 80.3061 140.108 79.7207 140.231 79.1469L142.456 68.5322C142.516 68.2486 142.673 67.995 142.898 67.8151C143.124 67.6353 143.405 67.5404 143.692 67.5469H148.143C148.328 67.5463 148.51 67.5874 148.677 67.6673C148.844 67.7471 148.991 67.8637 149.107 68.0084C149.168 68.084 149.218 68.168 149.255 68.2578C149.375 68.0712 149.516 67.8995 149.676 67.7465C149.986 67.4626 150.349 67.2436 150.744 67.1023C151.138 66.9609 151.557 66.9001 151.975 66.9232C152.479 66.904 152.979 67.0196 153.424 67.2584C153.869 67.4972 154.244 67.8507 154.51 68.2828C154.96 69.0744 155.183 69.9773 155.152 70.8897C155.125 73.0478 154.788 75.1906 154.151 77.251C153.523 79.4295 152.43 81.4431 150.949 83.1507C150.229 84.0052 149.33 84.6878 148.316 85.1494C147.303 85.611 146.201 85.84 145.089 85.82V85.82ZM147.104 79.6583C147.043 79.9327 147.018 80.1323 146.993 80.257C147.604 80.0334 148.111 79.5889 148.415 79.0097C149.206 77.7901 149.81 76.4571 150.207 75.0557C150.446 74.2617 150.636 73.4535 150.776 72.6359C150.459 72.5842 150.158 72.4594 149.896 72.2712C149.635 72.083 149.42 71.8365 149.268 71.5508C149.131 71.3287 149.023 71.0897 148.946 70.8398L147.104 79.6583Z" fill="white"/>
<path d="M151.95 68.1955C152.243 68.1736 152.536 68.233 152.797 68.3671C153.059 68.5012 153.279 68.705 153.434 68.9563C153.761 69.5547 153.919 70.232 153.891 70.9146C153.87 72.9509 153.549 74.9727 152.94 76.9142C152.365 78.9225 151.361 80.779 149.997 82.3525C149.391 83.075 148.632 83.6516 147.777 84.0401C146.921 84.4285 145.99 84.619 145.052 84.5976C144.039 84.6584 143.04 84.3285 142.258 83.6746C141.904 83.3147 141.631 82.8825 141.456 82.407C141.281 81.9316 141.209 81.4239 141.245 80.9181C141.249 80.415 141.303 79.9137 141.405 79.4213L143.631 68.8191H148.081L145.856 79.4213C145.774 79.7908 145.72 80.1661 145.695 80.5439C145.679 80.686 145.695 80.8302 145.742 80.9651C145.789 81.1 145.867 81.2222 145.968 81.3222C146.07 81.4222 146.193 81.4974 146.327 81.5419C146.462 81.5865 146.605 81.5992 146.746 81.5792C147.301 81.5228 147.833 81.3279 148.295 81.0122C148.757 80.6965 149.134 80.2698 149.391 79.7705C151.021 77.1883 151.954 74.2218 152.099 71.1641C152.099 71.2639 151.963 71.3387 151.691 71.3886C151.501 71.4376 151.306 71.4669 151.11 71.4759C150.942 71.4766 150.776 71.4303 150.632 71.3423C150.488 71.2543 150.371 71.1279 150.294 70.977C150.097 70.6455 149.995 70.2658 149.997 69.8794C149.983 69.6486 150.019 69.4176 150.102 69.2023C150.186 68.9869 150.314 68.7924 150.479 68.6321C150.676 68.4616 150.903 68.332 151.15 68.2507C151.396 68.1693 151.655 68.1379 151.913 68.1581L151.95 68.1955ZM151.913 65.6635C150.913 65.6279 149.93 65.9309 149.119 66.5241C148.794 66.37 148.44 66.2891 148.081 66.2871H143.631C143.054 66.2748 142.491 66.4663 142.039 66.8284C141.588 67.1906 141.276 67.7007 141.158 68.2703L138.933 78.8725C138.796 79.5331 138.726 80.2059 138.723 80.8807C138.677 81.7348 138.817 82.5886 139.13 83.3832C139.444 84.1779 139.925 84.8943 140.54 85.4832C141.773 86.5644 143.371 87.1269 145.003 87.0548C146.284 87.0673 147.553 86.7982 148.72 86.2661C149.888 85.7341 150.927 84.9519 151.765 83.974C153.359 82.1269 154.536 79.952 155.214 77.6002C155.891 75.4233 156.249 73.1584 156.277 70.8772C156.306 69.7372 156.023 68.6112 155.461 67.6217C155.086 67.004 154.556 66.4974 153.924 66.1535C153.292 65.8095 152.582 65.6405 151.864 65.6635H151.913Z" fill="#373737"/>
<path d="M157.415 85.82C156.809 85.8404 156.205 85.7347 155.642 85.5094C155.078 85.284 154.566 84.9439 154.139 84.5103C153.699 84.0116 153.363 83.429 153.151 82.7969C152.939 82.1649 152.854 81.4963 152.902 80.8308C152.918 80.0668 153.009 79.3064 153.174 78.5606L155.276 68.5821C155.336 68.2985 155.493 68.0449 155.718 67.865C155.944 67.6852 156.225 67.5903 156.512 67.5968H157.266C157.159 67.5151 157.06 67.4232 156.97 67.3223C156.626 66.9805 156.354 66.5725 156.169 66.1226C155.984 65.6727 155.891 65.19 155.894 64.703C155.888 63.7145 156.271 62.7638 156.957 62.0587C157.29 61.667 157.699 61.3488 158.159 61.1242C158.619 60.8996 159.12 60.7734 159.631 60.7535C160.142 60.7336 160.651 60.8205 161.127 61.0086C161.603 61.1967 162.035 61.482 162.397 61.8467C162.758 62.2114 163.041 62.6475 163.228 63.1277C163.414 63.6079 163.5 64.1218 163.48 64.6371C163.461 65.1524 163.335 65.6581 163.113 66.1224C162.89 66.5866 162.575 66.9994 162.187 67.3348C162.011 67.4997 161.825 67.6538 161.63 67.7963C161.743 67.8671 161.843 67.9555 161.927 68.0583C162.043 68.2032 162.126 68.3725 162.169 68.5538C162.211 68.7351 162.213 68.9238 162.174 69.106L159.949 79.7082C159.894 79.9203 159.861 80.1377 159.85 80.3568V80.3568C160.005 80.3485 160.157 80.3076 160.295 80.2367C160.433 80.1658 160.556 80.0665 160.654 79.9452C161.045 79.5512 161.319 79.0542 161.445 78.5107C161.522 78.2433 161.686 78.0095 161.91 77.8468C162.134 77.684 162.405 77.6016 162.681 77.6127H163.979C164.176 77.6102 164.371 77.6553 164.548 77.7443C164.724 77.8332 164.877 77.9634 164.993 78.1241C165.108 78.2865 165.182 78.4744 165.21 78.6719C165.238 78.8694 165.219 79.0708 165.154 79.2591C164.611 81.3262 163.408 83.1547 161.729 84.4604C160.46 85.343 158.956 85.817 157.415 85.82V85.82Z" fill="white"/>
<path d="M159.516 62.1585C160.172 62.1585 160.801 62.4213 161.265 62.8891C161.728 63.357 161.989 63.9915 161.989 64.6531C161.995 64.9783 161.935 65.3014 161.811 65.6019C161.688 65.9024 161.504 66.1739 161.272 66.3993C160.803 66.8617 160.172 67.1175 159.516 67.1103C159.189 67.1189 158.864 67.0602 158.56 66.9379C158.256 66.8155 157.98 66.6321 157.749 66.3987C157.518 66.1653 157.336 65.8869 157.215 65.5804C157.094 65.2738 157.035 64.9456 157.044 64.6157C157.037 63.9544 157.29 63.3173 157.749 62.8445C157.972 62.6099 158.241 62.4246 158.539 62.3001C158.837 62.1756 159.157 62.1146 159.479 62.1211L159.516 62.1585ZM160.876 68.7568L158.651 79.3589C158.565 79.6844 158.524 80.02 158.527 80.3567C158.512 80.5172 158.53 80.6791 158.581 80.8318C158.632 80.9845 158.715 81.1244 158.824 81.2423C159.103 81.4468 159.445 81.5441 159.788 81.5167C160.104 81.509 160.415 81.4364 160.702 81.3035C160.989 81.1705 161.246 80.9799 161.457 80.7434C161.998 80.1998 162.382 79.5189 162.57 78.7727H163.868C163.41 80.5758 162.381 82.1787 160.938 83.3378C159.901 84.1025 158.661 84.5369 157.378 84.5852C156.937 84.6039 156.498 84.5305 156.088 84.3695C155.677 84.2085 155.304 83.9634 154.992 83.6497C154.331 82.8732 154.002 81.864 154.077 80.8432C154.097 80.1634 154.18 79.4869 154.324 78.8225L156.426 68.844H160.876V68.7568ZM159.479 59.7138C158.168 59.7138 156.91 60.2394 155.983 61.1751C155.055 62.1107 154.534 63.3798 154.534 64.703C154.53 65.4258 154.682 66.1408 154.979 66.7985C154.46 67.1605 154.097 67.7094 153.966 68.3326L151.864 78.3111C151.689 79.1316 151.589 79.9667 151.567 80.8058C151.523 81.6352 151.644 82.4652 151.922 83.247C152.2 84.0288 152.63 84.7467 153.187 85.3585C153.731 85.9075 154.379 86.3397 155.093 86.6291C155.807 86.9185 156.571 87.0591 157.341 87.0423C159.113 87.015 160.836 86.45 162.286 85.4208C164.199 83.9694 165.579 81.9151 166.204 79.5834C166.33 79.2076 166.365 78.8069 166.307 78.4147C166.249 78.0224 166.098 77.6499 165.869 77.3279C165.639 77.006 165.337 76.7439 164.987 76.5635C164.636 76.3831 164.249 76.2895 163.856 76.2905H162.558C162.297 76.2872 162.038 76.3294 161.791 76.4152L163.287 69.2806C163.374 68.8216 163.336 68.3472 163.176 67.9086C163.983 67.0116 164.425 65.8398 164.412 64.6282C164.412 63.3049 163.891 62.0359 162.964 61.1002C162.036 60.1646 160.778 59.6389 159.467 59.6389L159.479 59.7138Z" fill="#373737"/>
<path d="M167.033 85.82C165.424 85.907 163.844 85.3564 162.632 84.2858C162.05 83.6667 161.602 82.9322 161.317 82.1291C161.032 81.326 160.915 80.4718 160.975 79.6208C161.005 77.8756 161.305 76.1458 161.865 74.4944C162.463 72.6099 163.502 70.8985 164.894 69.5051C165.639 68.7644 166.524 68.1836 167.497 67.7977C168.47 67.4118 169.511 67.2289 170.556 67.26C173.498 67.26 175.192 68.8066 175.192 71.5008C175.183 72.8988 174.752 74.2607 173.956 75.4049C173.168 76.5587 172.116 77.5041 170.89 78.1615C169.98 78.6532 169 78.9984 167.985 79.1843V79.3215C167.985 80.2819 168.158 80.5688 168.17 80.5688C168.183 80.5688 168.455 80.7309 168.974 80.7309C169.743 80.7607 170.504 80.5612 171.162 80.1572C172.034 79.5388 172.827 78.8141 173.523 77.9993C173.639 77.8701 173.78 77.7668 173.937 77.6959C174.095 77.625 174.265 77.5881 174.438 77.5877H175.489C175.707 77.5878 175.921 77.6461 176.11 77.7567C176.299 77.8674 176.455 78.0264 176.563 78.2177C176.671 78.409 176.727 78.6258 176.725 78.8459C176.723 79.0661 176.663 79.2818 176.552 79.4712C174.079 83.6746 170.865 85.82 167.033 85.82ZM170.321 71.8002C170.082 72.0885 169.875 72.4022 169.703 72.7357C169.41 73.2855 169.158 73.8567 168.949 74.4445C169.315 74.1068 169.625 73.7107 169.864 73.272C170.116 72.8188 170.272 72.3176 170.321 71.8002V71.8002Z" fill="white"/>
<path d="M170.556 68.5198C172.818 68.5198 173.956 69.5177 173.956 71.5134C173.959 72.6588 173.614 73.7776 172.967 74.719C172.292 75.7092 171.388 76.5184 170.334 77.0764C169.255 77.6579 168.067 78.0022 166.847 78.0867C166.847 78.7104 166.786 79.122 166.786 79.334C166.703 80.065 166.887 80.8013 167.305 81.4046C167.539 81.6047 167.811 81.7562 168.104 81.8504C168.396 81.9446 168.705 81.9796 169.011 81.9534C170.017 81.981 171.009 81.7123 171.867 81.18C172.832 80.5053 173.709 79.7089 174.475 78.8102H175.526C173.235 82.6519 170.404 84.5727 167.033 84.5727C165.731 84.6381 164.454 84.1909 163.472 83.3254C163.025 82.8192 162.685 82.2263 162.472 81.5829C162.26 80.9396 162.179 80.2592 162.236 79.5835C162.264 77.9695 162.544 76.37 163.064 74.8437C163.602 73.1525 164.535 71.6166 165.784 70.3658C166.415 69.7403 167.166 69.2508 167.991 68.927C168.815 68.6032 169.697 68.452 170.581 68.4824L170.556 68.5198ZM167.119 76.5525C167.908 76.5032 168.664 76.2213 169.295 75.7417C169.985 75.2436 170.555 74.5957 170.964 73.8458C171.377 73.1027 171.594 72.2653 171.595 71.4136C171.595 70.5529 171.347 70.1663 170.828 70.1663C170.086 70.1663 169.357 70.8274 168.652 72.137C167.909 73.5291 167.391 75.0325 167.119 76.59V76.5525ZM170.581 66.0252C169.375 65.9913 168.174 66.2049 167.052 66.653C165.93 67.1011 164.91 67.7744 164.053 68.6321C162.519 70.1588 161.374 72.0375 160.716 74.1078C160.116 75.8845 159.795 77.7445 159.764 79.6209C159.701 80.6433 159.851 81.6677 160.204 82.628C160.558 83.5883 161.107 84.4632 161.816 85.1964C163.257 86.4822 165.136 87.153 167.058 87.0674C171.347 87.0674 174.92 84.7224 177.677 80.0824C177.893 79.7043 178.008 79.2755 178.008 78.8388C178.009 78.4022 177.896 77.973 177.681 77.5943C177.465 77.2155 177.155 76.9003 176.782 76.6803C176.408 76.4603 175.983 76.3431 175.551 76.3405H174.92L175.044 76.1534C175.972 74.7966 176.468 73.1867 176.465 71.5383C176.465 68.1456 174.215 66.0501 170.593 66.0501L170.581 66.0252Z" fill="#373737"/>
<path d="M177.998 85.82C176.919 85.8475 175.85 85.594 174.895 85.0841C174.052 84.6302 173.36 83.9362 172.905 83.0884C172.479 82.3268 172.254 81.4681 172.25 80.5937C172.23 79.7131 172.467 78.8459 172.93 78.0991C173.238 77.5637 173.661 77.1036 174.166 76.752C174.863 75.4628 175.486 74.1344 176.033 72.7731C176.626 71.3262 177.182 69.7297 177.702 68.0583C177.77 67.8302 177.902 67.6268 178.082 67.472C178.262 67.3173 178.481 67.2178 178.715 67.1851L183.29 66.5615H183.45C183.743 66.558 184.028 66.6597 184.254 66.8484C184.385 66.9613 184.491 67.1007 184.566 67.2575C184.64 67.4143 184.681 67.5851 184.686 67.7589C184.798 70.3907 184.971 73.2845 185.218 76.3404C185.317 77.5877 185.366 78.5606 185.366 79.1593C185.411 80.5615 184.974 81.9363 184.13 83.051C183.379 84.0174 182.378 84.7555 181.237 85.1838C180.204 85.5896 179.107 85.805 177.998 85.82V85.82ZM178.443 79.5834C178.343 79.9696 178.157 80.3278 177.899 80.6312C177.975 80.5842 178.045 80.5299 178.11 80.469C178.329 80.2327 178.449 79.9196 178.443 79.5959V79.5834ZM178.147 77.4131C178.246 77.5726 178.332 77.7394 178.406 77.912C178.406 77.6501 178.406 77.3632 178.32 77.0514L178.147 77.4131Z" fill="white"/>
<path d="M183.5 67.8337C183.607 70.4864 183.784 73.3635 184.031 76.4651C184.13 77.7125 184.18 78.623 184.18 79.1843C184.229 80.3034 183.892 81.4052 183.228 82.3026C182.611 83.0887 181.795 83.692 180.866 84.0488C179.949 84.3944 178.978 84.5718 177.998 84.5727C177.139 84.5988 176.288 84.4012 175.526 83.9989C174.889 83.6551 174.362 83.1361 174.005 82.5021C173.686 81.9127 173.516 81.2529 173.511 80.5813C173.496 79.9482 173.664 79.3243 173.993 78.7851C174.269 78.3155 174.672 77.9348 175.155 77.6875C175.94 76.2582 176.642 74.7839 177.257 73.272C177.85 71.7877 178.419 70.1787 178.95 68.4574L183.524 67.8337H183.5ZM175.983 80.3069C175.821 80.3318 175.656 80.3071 175.508 80.2359C175.36 80.1648 175.237 80.0504 175.155 79.9077C175.107 80.4923 175.264 81.0752 175.6 81.5542C175.786 81.744 176.01 81.8905 176.258 81.9832C176.506 82.0758 176.771 82.1125 177.034 82.0905C177.411 82.1185 177.79 82.0608 178.142 81.9218C178.495 81.7829 178.812 81.566 179.07 81.2873C179.329 81.0086 179.522 80.6751 179.636 80.3112C179.75 79.9473 179.782 79.5622 179.729 79.1843C179.712 78.3085 179.65 77.4342 179.544 76.5649C179.334 74.195 179.198 72.611 179.136 71.8002C178.486 73.8326 177.658 75.8027 176.663 77.6875C176.87 77.7867 177.045 77.9419 177.17 78.1357C177.294 78.3295 177.363 78.5543 177.368 78.7851C177.371 79.1736 177.235 79.5502 176.985 79.8454C176.867 79.9917 176.718 80.1093 176.549 80.1892C176.38 80.2692 176.195 80.3094 176.008 80.3069H175.983ZM183.549 65.3391H183.228L178.654 65.9628C178.187 66.027 177.748 66.2243 177.389 66.5315C177.03 66.8386 176.765 67.2428 176.626 67.6965C176.107 69.343 175.563 70.9021 174.994 72.3241C174.5 73.5714 173.943 74.7314 173.313 75.9163C172.766 76.3369 172.297 76.8521 171.928 77.4381C171.35 78.3771 171.05 79.4633 171.063 80.5688C171.064 81.6563 171.34 82.7255 171.867 83.6746C172.43 84.7328 173.29 85.6004 174.339 86.1692C175.477 86.7896 176.755 87.0992 178.048 87.0673C179.315 87.0642 180.571 86.8318 181.757 86.3813C183.105 85.8862 184.291 85.0224 185.181 83.8866C186.202 82.5542 186.731 80.9048 186.677 79.2217C186.677 78.5856 186.677 77.6251 186.516 76.303C186.281 73.2596 186.096 70.3907 185.997 67.7714C185.971 67.1272 185.7 66.518 185.239 66.0716C184.778 65.6251 184.163 65.376 183.524 65.3765L183.549 65.3391Z" fill="#373737"/>
<path d="M197.692 86.1943C195.714 86.3051 193.766 85.6693 192.228 84.4106C191.533 83.7876 190.985 83.017 190.621 82.1542C190.258 81.2914 190.089 80.3581 190.126 79.4214C190.129 78.0719 190.424 76.7394 190.991 75.5173C191.554 74.2758 192.356 73.1604 193.353 72.2368C193.873 71.7579 194.445 71.3395 195.059 70.9895C194.876 70.7265 194.719 70.4467 194.589 70.1538C194.232 69.2805 194.059 68.3417 194.082 67.3973C194.084 66.0456 194.465 64.7222 195.182 63.5805C195.91 62.3974 196.927 61.4221 198.134 60.7474C199.342 60.0727 200.7 59.7212 202.081 59.7263C203.652 59.6686 205.186 60.2172 206.37 61.2605C206.94 61.757 207.394 62.3746 207.7 63.0689C208.006 63.7633 208.155 64.5173 208.138 65.2769C208.174 66.3115 207.85 67.3262 207.223 68.1457C206.902 68.5456 206.495 68.866 206.032 69.0822C205.569 69.2985 205.063 69.4047 204.553 69.393C203.992 69.4013 203.438 69.2717 202.938 69.0152C202.439 68.7587 202.008 68.3832 201.685 67.9211C201.582 67.7817 201.509 67.6219 201.47 67.4522C201.432 67.2825 201.429 67.1066 201.462 66.9358C201.496 66.7663 201.563 66.6056 201.661 66.4639C201.759 66.3222 201.885 66.2025 202.031 66.1125C202.225 65.9674 202.378 65.774 202.476 65.5513C202.624 65.2531 202.7 64.9241 202.699 64.5908C202.721 64.399 202.677 64.2054 202.575 64.042C202.575 64.042 202.575 63.9671 202.328 63.9671C202.046 63.9792 201.778 64.0945 201.574 64.2915C201.205 64.6392 200.918 65.0652 200.733 65.5388C200.5 66.0776 200.382 66.6598 200.387 67.2476C200.36 67.9145 200.561 68.5704 200.956 69.1061C201.362 69.623 201.935 69.9804 202.575 70.1164C202.847 70.1871 203.087 70.3492 203.256 70.5759C203.424 70.8026 203.511 71.0805 203.502 71.3637C203.502 71.5246 203.477 71.6845 203.428 71.8377V71.8377C204.294 71.607 205.18 71.4649 206.074 71.4136C206.613 71.3849 207.15 71.3183 207.681 71.2141C208.031 71.0858 208.36 70.905 208.657 70.6777C208.967 70.4783 209.242 70.2298 209.473 69.9418C209.588 69.7869 209.738 69.6611 209.909 69.5745C210.081 69.4879 210.27 69.4429 210.462 69.4429C210.809 69.4451 211.142 69.5736 211.402 69.8046C211.857 70.271 212.196 70.8395 212.391 71.4635C212.482 71.8223 212.532 72.1907 212.539 72.5611C212.53 73.6227 212.134 74.6437 211.427 75.4299C210.736 76.2529 209.827 76.8589 208.806 77.1762C208.632 77.2309 208.454 77.2726 208.274 77.3009C208.018 78.7875 207.472 80.2079 206.667 81.4794C205.726 82.9783 204.413 84.2035 202.859 85.0343C201.254 85.8348 199.482 86.2327 197.692 86.1943V86.1943ZM201.228 73.1848C200.914 73.3554 200.619 73.5604 200.35 73.796C199.629 74.4009 199.043 75.1534 198.631 76.0037C198.225 76.803 198.009 77.6872 198.001 78.5856C197.951 79.1915 198.123 79.7947 198.483 80.282C198.651 80.4581 198.856 80.5933 199.083 80.6776C199.31 80.7619 199.553 80.7929 199.793 80.7684C200.505 80.7595 201.201 80.557 201.809 80.1822C202.716 79.6168 203.465 78.8268 203.984 77.8872C203.611 78.0824 203.286 78.3594 203.032 78.6979C202.881 78.9256 202.659 79.0965 202.402 79.1844C202.261 79.2243 202.116 79.2453 201.969 79.2467C201.777 79.2565 201.586 79.2211 201.41 79.1431C201.234 79.0652 201.078 78.9469 200.956 78.7977C200.61 78.3417 200.351 77.8261 200.189 77.276C200.056 76.8743 199.993 76.4522 200.004 76.0287C200.003 75.0152 200.383 74.039 201.067 73.2971L201.228 73.1848Z" fill="white"/>
<path d="M202.118 60.9361C203.386 60.8941 204.624 61.3399 205.579 62.1835C206.02 62.5618 206.37 63.0349 206.606 63.5681C206.841 64.1013 206.955 64.6809 206.939 65.2643C206.971 66.0168 206.744 66.7574 206.296 67.3598C206.097 67.6242 205.838 67.8377 205.542 67.9828C205.246 68.128 204.92 68.2009 204.59 68.1955C204.221 68.2042 203.856 68.1197 203.528 67.9498C203.2 67.7799 202.919 67.5299 202.711 67.2226C203.107 66.9609 203.423 66.594 203.626 66.1624C203.858 65.6895 203.976 65.1683 203.972 64.6407C204.007 64.1443 203.852 63.6533 203.539 63.2686C203.394 63.1012 203.212 62.9694 203.009 62.8829C202.806 62.7965 202.585 62.7578 202.365 62.7697C201.792 62.7803 201.242 63.0021 200.82 63.3933C200.279 63.8359 199.855 64.4056 199.583 65.0523C199.287 65.7498 199.135 66.5011 199.138 67.26C199.094 68.2021 199.383 69.1294 199.954 69.8764C200.524 70.6235 201.339 71.1417 202.254 71.3387V71.4635C201.242 71.6707 200.3 72.1391 199.521 72.823C198.664 73.5393 197.969 74.4324 197.482 75.4424C196.99 76.4118 196.732 77.4843 196.728 78.5731C196.678 79.4767 196.964 80.3664 197.531 81.0678C197.814 81.3726 198.16 81.6109 198.545 81.7661C198.929 81.9213 199.343 81.9895 199.756 81.9658C200.68 81.9537 201.584 81.6956 202.377 81.2174C203.263 80.6977 204.023 79.9863 204.602 79.1344C205.229 78.2271 205.651 77.1926 205.839 76.1035C205.359 76.1074 204.882 76.1702 204.417 76.2905C203.431 76.5472 202.56 77.1316 201.945 77.9495H201.846C201.597 77.6107 201.409 77.2309 201.289 76.8269C201.209 76.5642 201.168 76.291 201.166 76.0161C201.165 75.312 201.43 74.6341 201.907 74.1202C202.402 73.5567 203.045 73.1459 203.762 72.9353C204.542 72.7276 205.342 72.6023 206.148 72.5611C206.737 72.5228 207.323 72.4478 207.903 72.3366C208.421 72.1701 208.909 71.9217 209.35 71.6007C209.764 71.3257 210.132 70.9844 210.438 70.5904H210.499C210.819 70.9133 211.053 71.3122 211.179 71.7504C211.241 71.9824 211.274 72.2212 211.278 72.4613C211.263 73.2246 210.973 73.9561 210.462 74.5194C210.063 75.0108 209.559 75.4042 208.987 75.67C208.415 75.9358 207.791 76.0669 207.162 76.0536C207.013 77.7066 206.479 79.3008 205.604 80.706C204.78 82.0258 203.624 83.1017 202.254 83.8243C200.822 84.5739 199.23 84.9552 197.618 84.9344C195.946 85.0315 194.298 84.498 192.994 83.4377C192.433 82.9305 191.991 82.3035 191.7 81.6023C191.409 80.901 191.277 80.1432 191.313 79.3839C191.316 78.215 191.573 77.0611 192.067 76.0037C192.56 74.9123 193.267 73.9323 194.144 73.1224C194.96 72.3413 195.947 71.7645 197.024 71.4385V71.3138C196.454 70.8447 195.99 70.2578 195.664 69.5925C195.382 68.8793 195.247 68.1152 195.269 67.3473C195.264 66.2243 195.582 65.1239 196.184 64.1792C196.805 63.1814 197.668 62.3592 198.691 61.7898C199.714 61.2204 200.863 60.9224 202.031 60.9237L202.118 60.9361ZM202.031 58.4291C200.417 58.4361 198.832 58.8659 197.432 59.6764C196.06 60.4457 194.906 61.5582 194.082 62.9069C193.26 64.2521 192.831 65.8044 192.846 67.3848C192.825 68.4736 193.023 69.5555 193.427 70.5654C193.108 70.7965 192.802 71.0464 192.512 71.3138C191.397 72.3509 190.497 73.6018 189.866 74.9934C189.233 76.3826 188.9 77.8921 188.89 79.4213C188.848 80.5311 189.048 81.6365 189.475 82.6601C189.902 83.6836 190.547 84.6004 191.362 85.346C193.113 86.8145 195.344 87.5707 197.618 87.4665C199.634 87.485 201.625 87.0053 203.416 86.0695C205.158 85.1423 206.628 83.7704 207.681 82.0906C208.434 80.9171 208.982 79.6219 209.3 78.2613C210.48 77.8528 211.53 77.1337 212.341 76.1783C213.234 75.1624 213.734 73.8563 213.751 72.4987C213.746 72.0526 213.688 71.6086 213.578 71.1766V71.0269C213.341 70.2191 212.917 69.4796 212.341 68.8691C212.111 68.6356 211.838 68.4504 211.537 68.3241C211.235 68.1978 210.912 68.1329 210.586 68.1332C210.193 68.1339 209.806 68.224 209.453 68.3968C209.1 68.5696 208.79 68.8205 208.546 69.131C208.396 69.3171 208.216 69.4772 208.015 69.605C207.811 69.7475 207.591 69.8647 207.359 69.9542L206.964 70.0166C207.436 69.7259 207.854 69.3545 208.2 68.9189C209.025 67.885 209.462 66.5912 209.436 65.2643C209.456 64.3217 209.27 63.3863 208.892 62.5242C208.514 61.662 207.953 60.8942 207.248 60.2751C205.838 59.0315 204.014 58.3721 202.142 58.4291H202.031ZM199.793 79.4213C199.793 79.4213 199.472 79.4213 199.41 79.3465C199.263 79.0855 199.203 78.784 199.237 78.4858C199.231 78.3903 199.231 78.2945 199.237 78.1989C199.414 78.643 199.646 79.0622 199.929 79.4462L199.793 79.4213Z" fill="#373737"/>
<path d="M223.591 85.6579C223.405 85.6621 223.219 85.6236 223.05 85.5452C222.88 85.4669 222.73 85.3508 222.611 85.2055C222.492 85.0603 222.407 84.8898 222.363 84.7067C222.318 84.5237 222.316 84.3329 222.355 84.1487L226.41 65.1022C225.568 65.1942 224.771 65.5372 224.123 66.0876C223.394 66.7487 223.01 68.1207 223.01 70.0665C222.98 70.4272 223.014 70.7904 223.109 71.1392C223.301 71.457 223.415 71.816 223.443 72.187C223.443 72.5178 223.313 72.835 223.081 73.0689C222.849 73.3028 222.535 73.4343 222.207 73.4343C221.028 73.5087 219.861 73.1547 218.918 72.4364C218.483 72.0199 218.146 71.51 217.932 70.9444C217.718 70.3787 217.632 69.7718 217.682 69.1685C217.645 67.4401 218.125 65.7406 219.06 64.292C219.996 62.8433 221.342 61.713 222.924 61.0484C224.988 60.1568 227.22 59.7311 229.464 59.8011C230.996 59.8079 232.526 59.9372 234.038 60.1878C235.14 60.3869 236.256 60.4954 237.376 60.5121C238.44 60.5288 239.498 60.3382 240.491 59.9508C240.686 59.8692 240.899 59.8394 241.109 59.8643C241.319 59.8892 241.519 59.968 241.69 60.0931C241.861 60.2182 241.997 60.3854 242.086 60.5789C242.175 60.7723 242.213 60.9856 242.197 61.1982C242.244 62.6072 241.747 63.9797 240.812 65.0274C240.314 65.4894 239.73 65.8456 239.092 66.0749C238.455 66.3042 237.779 66.4018 237.104 66.362C236.379 66.3596 235.656 66.3013 234.94 66.1874C234.503 66.1292 233.947 66.0294 233.271 65.888L229.315 84.6476C229.255 84.9313 229.098 85.1849 228.873 85.3647C228.647 85.5446 228.366 85.6394 228.079 85.633L223.591 85.6579Z" fill="white"/>
<path d="M229.464 61.0359C230.934 61.0454 232.401 61.1704 233.852 61.4101C235.015 61.621 236.194 61.7336 237.376 61.7469C238.601 61.7649 239.818 61.5447 240.961 61.0983C241.007 62.1913 240.64 63.2613 239.935 64.0918C239.548 64.4347 239.097 64.6963 238.609 64.8612C238.121 65.0262 237.605 65.0911 237.091 65.0523C236.429 65.0516 235.768 65.0016 235.113 64.9026C234.458 64.7903 233.518 64.6157 232.307 64.3662L228.079 84.4106H223.628L228.017 63.7676H227.646C226.099 63.6715 224.572 64.1657 223.369 65.1521C222.343 66.0875 221.836 67.7215 221.836 70.0665C221.804 70.6114 221.875 71.1576 222.046 71.6755C222.137 71.8379 222.212 72.0093 222.269 72.1869C221.389 72.251 220.515 72.004 219.796 71.4884C219.496 71.1877 219.267 70.8235 219.123 70.4223C218.98 70.0211 218.927 69.5929 218.968 69.1684C218.933 67.6774 219.349 66.2111 220.159 64.9637C220.969 63.7163 222.136 62.7467 223.505 62.1835C225.402 61.3705 227.453 60.9873 229.513 61.0609L229.464 61.0359ZM229.513 58.5663C227.085 58.4894 224.671 58.9536 222.442 59.9258C220.649 60.6906 219.124 61.9799 218.064 63.6273C217.004 65.2747 216.458 67.2047 216.495 69.1684C216.445 69.9544 216.572 70.7416 216.865 71.4715C217.158 72.2014 217.611 72.8553 218.189 73.3843C219.363 74.2779 220.813 74.7201 222.281 74.6316C222.575 74.6185 222.864 74.5508 223.134 74.4321L221.131 83.8243C221.053 84.1887 221.057 84.5661 221.143 84.9287C221.228 85.2913 221.393 85.63 221.626 85.9198C221.858 86.2092 222.152 86.4424 222.486 86.6021C222.82 86.7618 223.185 86.8441 223.554 86.8428H228.079C228.643 86.8413 229.19 86.6449 229.629 86.2864C230.067 85.9279 230.371 85.4288 230.49 84.8721L234.198 67.2351L234.73 67.3224C235.507 67.4475 236.292 67.5101 237.079 67.5095C237.92 67.5577 238.761 67.432 239.552 67.1403C240.343 66.8486 241.066 66.397 241.678 65.8131C242.836 64.5399 243.461 62.8636 243.421 61.1357C243.431 60.8019 243.374 60.4694 243.254 60.1581C243.135 59.8467 242.954 59.5628 242.723 59.3232C242.493 59.0835 242.217 58.8931 241.912 58.7631C241.607 58.633 241.279 58.5661 240.948 58.5663C240.631 58.5613 240.316 58.6207 240.021 58.7409C239.173 59.0681 238.271 59.229 237.363 59.2148C236.322 59.203 235.283 59.0987 234.26 58.903C232.67 58.6434 231.062 58.5099 229.451 58.5039L229.513 58.5663ZM224.37 69.131C224.394 68.5706 224.511 68.0182 224.716 67.497L224.37 69.131Z" fill="#373737"/>
<path d="M241.764 85.6579C241.436 85.6579 241.122 85.5265 240.89 85.2926C240.658 85.0586 240.528 84.7414 240.528 84.4106L240.083 65.1396C239.607 65.4859 239.19 65.907 238.847 66.3869C238.15 67.4586 237.804 68.7237 237.858 70.0042C237.837 70.3606 237.87 70.7181 237.957 71.0643C238.15 71.3858 238.265 71.7494 238.29 72.1246C238.29 72.4554 238.16 72.7727 237.928 73.0066C237.696 73.2405 237.382 73.3719 237.054 73.3719C235.874 73.4427 234.707 73.0843 233.766 72.3616C233.332 71.944 232.995 71.4339 232.782 70.8686C232.568 70.3032 232.482 69.6968 232.529 69.0936C232.574 67.3419 233.256 65.6681 234.446 64.3913C235.74 62.9626 237.307 61.8137 239.054 61.014C240.801 60.2143 242.69 59.7805 244.608 59.7388C244.917 59.7388 245.362 59.7388 245.943 59.7388C246.253 59.7639 246.543 59.9063 246.754 60.1376C246.965 60.3688 247.081 60.6719 247.08 60.9861L247.253 73.0101L251.444 60.6867C251.529 60.4413 251.688 60.2288 251.899 60.079C252.109 59.9292 252.361 59.8495 252.619 59.851H254.782C254.981 59.8514 255.178 59.9003 255.354 59.9937C255.531 60.0871 255.682 60.2221 255.796 60.3874C255.908 60.5534 255.98 60.7445 256.003 60.9443C256.027 61.1441 256.002 61.3467 255.932 61.5349L247.34 84.7598C247.252 84.9966 247.095 85.2009 246.89 85.3457C246.685 85.4904 246.441 85.5689 246.19 85.5706L241.764 85.6579Z" fill="white"/>
<path d="M244.632 60.9986C244.929 60.9986 245.337 60.9986 245.869 60.9986L246.153 80.1822L252.643 61.0983H254.807L246.215 84.4106H241.764L241.27 63.119C239.897 63.606 238.708 64.5129 237.87 65.7134C237.027 66.9938 236.596 68.505 236.634 70.0416C236.599 70.5835 236.674 71.127 236.856 71.6381C236.944 71.805 237.015 71.9805 237.067 72.162C236.185 72.23 235.308 71.9779 234.594 71.451C234.297 71.1491 234.069 70.7845 233.928 70.3834C233.787 69.9822 233.736 69.5545 233.778 69.131C233.828 67.6813 234.404 66.3007 235.398 65.2519C236.571 63.9543 237.994 62.9104 239.579 62.1836C241.164 61.4568 242.879 61.0622 244.62 61.0235L244.632 60.9986ZM244.62 58.5289C242.519 58.5616 240.446 59.0303 238.532 59.9058C236.618 60.7813 234.903 62.0449 233.494 63.6179C232.101 65.1145 231.309 67.0788 231.268 69.131C231.217 69.919 231.342 70.7087 231.635 71.4409C231.929 72.1731 232.382 72.829 232.962 73.3594C234.129 74.2561 235.578 74.6989 237.042 74.6067C237.418 74.6073 237.79 74.521 238.129 74.3546C238.467 74.1882 238.763 73.9459 238.995 73.6463L239.242 84.4231C239.242 85.0847 239.503 85.7192 239.967 86.187C240.43 86.6549 241.059 86.9177 241.715 86.9177H246.165C246.668 86.9168 247.159 86.7611 247.572 86.4714C247.985 86.1816 248.301 85.7717 248.477 85.2962L257.069 62.0587C257.206 61.6824 257.251 61.2783 257.201 60.8806C257.15 60.4829 257.005 60.1034 256.779 59.7742C256.552 59.445 256.25 59.1758 255.898 58.9894C255.546 58.803 255.155 58.705 254.757 58.7035H252.594C252.079 58.7039 251.577 58.8663 251.158 59.1682C250.74 59.47 250.425 59.8962 250.257 60.3874L248.366 65.9379L248.292 61.0609C248.294 60.4325 248.061 59.8264 247.639 59.3639C247.217 58.9014 246.638 58.6166 246.017 58.5663C245.411 58.5663 244.941 58.4915 244.583 58.4915L244.62 58.5289Z" fill="#373737"/>
</g>
<defs>
<clipPath id="clip0">
<rect width="191.153" height="79.45" fill="white" transform="translate(84.6706 0.768677)"/>
</clipPath>
<clipPath id="clip1">
<rect width="359.961" height="29" fill="white" transform="translate(0.266876 58.4415)"/>
</clipPath>
</defs>
</svg>
