<svg width="360" height="94" viewBox="0 0 360 94" fill="none" xmlns="http://www.w3.org/2000/svg">
<path d="M168.335 27.0331L179.999 3.48285L191.653 27.0321C192.09 27.9168 192.935 28.5295 193.912 28.6707L219.977 32.4383L201.127 50.7608C200.417 51.4505 200.093 52.4457 200.261 53.4208L204.711 79.2816L181.393 67.0604C180.521 66.6033 179.48 66.6033 178.607 67.0604L155.289 79.2816L159.739 53.4208C159.907 52.4457 159.583 51.4505 158.874 50.7608L140.023 32.4381L166.076 28.6707C167.052 28.5295 167.897 27.9172 168.335 27.0331Z" fill="white" stroke="#F3B952" stroke-width="4"/>
<path d="M179.477 11.9438L189.369 31.9214L211.486 35.1227L195.481 50.6698L199.262 72.633L179.477 62.2593L159.691 72.633L163.472 50.6698L147.468 35.1227L169.584 31.9214L179.477 11.9438Z" fill="#F3B952"/>
<path d="M178.58 18.6067C178.948 17.8648 180.006 17.8648 180.373 18.6067L187.733 33.4765C187.879 33.7714 188.16 33.9756 188.486 34.0226L204.952 36.4012C205.773 36.5198 206.101 37.5297 205.506 38.108L193.598 49.68C193.361 49.9098 193.253 50.2413 193.309 50.5662L196.113 66.9203C196.253 67.7366 195.397 68.3595 194.663 67.9751L179.94 60.2609C179.65 60.1087 179.303 60.1086 179.013 60.2606L164.269 67.9754C163.535 68.3595 162.679 67.7355 162.82 66.9192L165.644 50.5668C165.7 50.2416 165.592 49.9095 165.355 49.6795L153.448 38.108C152.853 37.5297 153.18 36.5198 154.002 36.4012L170.467 34.0226C170.793 33.9756 171.075 33.7714 171.221 33.4765L178.58 18.6067Z" fill="#8E2948"/>
<path d="M179.477 25.4761L185.524 37.6938L199.056 39.6487L189.266 49.1623L191.571 62.6018L179.477 56.2649L167.366 62.6018L169.687 49.1623L159.897 39.6487L173.43 37.6938L179.477 25.4761Z" fill="#F3B952"/>
<path fill-rule="evenodd" clip-rule="evenodd" d="M179.336 25.7596V45.962L173.265 37.7174L173.429 37.6937L179.336 25.7596ZM159.911 39.6619L179.336 45.962L169.616 49.0931L159.911 39.6619ZM167.459 62.0621L179.336 45.962V56.3382L167.366 62.6016L167.459 62.0621ZM191.429 62.5272L179.336 45.962L189.314 49.1155L189.266 49.1621L191.571 62.6016L191.429 62.5272ZM198.671 39.5929L179.336 45.962L185.453 37.5512L185.524 37.6937L198.671 39.5929Z" fill="#FFF0C2"/>
<g clip-path="url(#clip0)">
<path d="M218.489 78.9411V78.7632H219.236V78.5853H220.001L220.962 73.7458H219.111L219.449 72.1623C219.449 72.0022 219.574 71.5752 219.752 70.8813L220.339 68.3548L211.799 69.5113L211.194 69.6002H210.607H210.019V69.6892H209.45H208.881L208.329 69.7782H207.778H207.244V69.8671H206.728H206.212L205.767 72.3936C205.268 72.2628 204.753 72.197 204.237 72.1979C203.795 72.1935 203.354 72.2352 202.92 72.3224H194.789V72.5004H194.54V72.6783H194.309V72.8562H194.06V73.0341H193.829C192.763 72.2711 191.472 71.8888 190.163 71.9488C189.013 71.9155 187.868 72.116 186.798 72.538C185.728 72.9601 184.754 73.5949 183.936 74.4041C182.841 75.4945 181.949 76.7719 181.303 78.1761L182.015 74.0661V73.8704V73.728V73.5145V73.3544V73.1587V72.9985V72.8206V72.6427V72.447L183.491 65.508L175.005 66.6467L173.777 72.4114V72.2335H166.98C167.607 71.3854 168.033 70.4058 168.226 69.3689V66.6467L167.977 66.7713V66.4688L167.728 66.5934V66.2909L167.478 66.4154V66.113L167.212 66.2375V65.9351L166.927 66.0596V65.8105L166.642 65.9351V65.6326L166.358 65.7571V65.4547L166.073 65.5792V65.2767L165.788 65.4013V65.0988L165.486 65.2234V64.9209L162.959 65.9528C161.982 66.3232 160.944 66.5044 159.899 66.4866C158.771 66.4712 157.647 66.3641 156.536 66.1663C154.943 65.8976 153.33 65.7608 151.715 65.7571C149.316 65.6843 146.93 66.1336 144.722 67.0737C142.935 67.8498 141.422 69.1455 140.381 70.7923C139.472 72.3265 138.998 74.0797 139.011 75.8631C138.962 76.5567 139.069 77.2525 139.324 77.8992C139.58 78.5459 139.978 79.1269 140.488 79.5994C141.151 80.1327 141.942 80.4824 142.783 80.6136L143.53 80.7915L144.242 80.9694L144.971 81.1474L145.665 81.3253H145.968L143.423 93.2104H144.384V93.3884H145.131V93.5663H145.879V93.7442H146.59V93.9221H147.302V94.1001H147.996V94.278H148.69V94.4559H149.348V94.6338H149.722V94.8117H150.362V94.9897H157.106L157.497 92.819L158.031 93.0325L158.476 93.2104L158.903 93.3884L159.33 93.5663L159.739 93.7442L160.148 93.9221L160.557 94.1001L160.949 94.278L161.34 94.4559L161.714 94.6338C162.349 94.994 163.066 95.184 163.795 95.1854C164.924 95.1922 166.014 94.7801 166.856 94.0289L167.087 93.7976H167.212L167.478 93.9755L167.728 94.1534L167.977 94.3313C168.622 94.849 169.427 95.1259 170.254 95.1142C171.62 95.0638 172.922 94.5203 173.919 93.5841C174.279 94.0526 174.743 94.4314 175.274 94.6907C175.805 94.95 176.389 95.0828 176.979 95.0786C178.393 95.026 179.745 94.4853 180.805 93.5485L181.072 93.2994C181.562 93.8784 182.176 94.3391 182.87 94.6472C183.563 94.9553 184.317 95.1028 185.075 95.0786C186.329 95.1471 187.579 94.8702 188.687 94.278L188.544 95.1142H195.288V94.9363H195.572V94.7584H195.981V94.5804H196.266V94.4025H196.569V94.2246H196.871V94.0467H197.174V93.8687H197.44C197.832 94.3435 198.328 94.7209 198.89 94.971C199.452 95.2211 200.064 95.3372 200.679 95.3099C201.297 95.2895 201.903 95.1379 202.458 94.8651L202.92 94.6872L203.383 94.5093L203.863 94.3313H204.201C204.541 94.6784 204.949 94.9522 205.399 95.1358C205.849 95.3194 206.331 95.4089 206.817 95.3989C207.264 95.3999 207.706 95.3091 208.116 95.132L208.685 94.9541L209.272 94.7761L209.877 94.5982L210.482 94.4203L211.105 94.2424L211.745 94.0645L212.404 93.8865L213.062 93.7086L213.738 93.5307C214.482 93.3936 215.183 93.0827 215.784 92.6233C216.818 91.7499 217.562 90.5836 217.919 89.2784L219.254 85.7199L218.417 86.0224V85.8979L217.599 86.2003V86.0758L216.798 86.3782V86.2537L216.122 86.5206L217.706 79.0835L218.489 78.9411ZM189.523 86.574L189.719 86.396L189.914 86.2181L190.11 86.0402L190.003 86.7341L189.879 86.8764C189.526 87.046 189.147 87.1543 188.758 87.1967C189.028 87.0088 189.284 86.8006 189.523 86.574V86.574Z" fill="#141515"/>
<path d="M159.775 71.6813C160.308 71.7211 160.845 71.6535 161.352 71.4824C161.86 71.3112 162.327 71.04 162.728 70.6849C163.465 69.8273 163.841 68.7179 163.778 67.5891C162.596 68.0598 161.331 68.2897 160.059 68.2652C158.865 68.25 157.674 68.1309 156.501 67.9093C155 67.6698 153.483 67.5449 151.964 67.5357C149.828 67.4528 147.7 67.848 145.737 68.6922C144.27 69.3139 143.028 70.3693 142.178 71.7168C141.43 72.9691 141.042 74.4037 141.057 75.8624C141.015 76.2982 141.07 76.7379 141.218 77.15C141.365 77.5622 141.602 77.9366 141.911 78.2466C142.66 78.7824 143.574 79.0346 144.491 78.9583C144.425 78.7814 144.348 78.609 144.26 78.4423C144.069 77.9128 143.99 77.3492 144.029 76.7876C143.932 75.8818 144.022 74.9657 144.294 74.0963C144.567 73.227 145.015 72.4231 145.612 71.7346C146.866 70.7235 148.452 70.216 150.06 70.3113H150.434L145.897 91.5195H150.505L154.917 70.9518C156.181 71.2187 157.159 71.3966 157.835 71.5033C158.476 71.6097 159.125 71.6692 159.775 71.6813V71.6813Z" fill="white"/>
<path d="M216.941 75.5237C217.314 73.7445 217.563 72.499 217.706 71.9652L218.026 70.5241L213.293 71.1646L212.333 75.5771H211.283L211.016 76.8581H212.084L210.215 85.8075H210.073C209.805 86.5681 209.421 87.2824 208.934 87.9248C208.747 88.1512 208.509 88.3315 208.241 88.4518C207.973 88.5721 207.68 88.6292 207.386 88.6187C207.204 88.6401 207.019 88.6191 206.847 88.5574C206.674 88.4957 206.517 88.3949 206.39 88.2629C206.189 87.9776 206.088 87.6331 206.105 87.2843C206.123 86.78 206.195 86.279 206.319 85.7898C206.461 85.167 206.604 84.5087 206.781 83.8504C207.066 82.7592 207.28 81.834 207.422 81.0748C207.562 80.3955 207.64 79.7046 207.653 79.0109C207.692 78.5153 207.627 78.0169 207.461 77.548C207.296 77.0792 207.034 76.6502 206.692 76.2887C205.972 75.6717 205.042 75.3534 204.095 75.3991C203.376 75.3984 202.666 75.5577 202.017 75.8654C201.368 76.1732 200.795 76.6217 200.341 77.1784L200.697 75.5059H195.982L193.793 85.7898C192.998 86.7125 192.089 87.5315 191.089 88.2273C190.203 88.7767 189.177 89.055 188.135 89.0279C187.816 89.0598 187.493 89.0257 187.187 88.9278C186.881 88.8298 186.598 88.6702 186.356 88.4586C185.912 87.8409 185.715 87.0791 185.804 86.3235C185.804 86.11 185.804 85.683 185.804 85.0425C187.052 84.963 188.267 84.6108 189.363 84.0105C190.456 83.4408 191.391 82.6096 192.085 81.5908C192.841 80.6426 193.272 79.4759 193.313 78.2637C193.313 76.1998 192.138 75.1856 189.754 75.1856C188.838 75.1536 187.926 75.3091 187.072 75.6426C186.218 75.9761 185.442 76.4806 184.79 77.125C183.49 78.4394 182.531 80.052 181.997 81.8221C181.461 83.393 181.173 85.0377 181.143 86.6972V86.8395C180.957 87.23 180.704 87.5852 180.396 87.8892C180.168 88.134 179.893 88.3296 179.587 88.4642C179.281 88.5989 178.951 88.6696 178.616 88.6721C178.263 88.7058 177.909 88.611 177.62 88.4052C177.503 88.2872 177.413 88.1446 177.358 87.9876C177.302 87.8307 177.282 87.6634 177.3 87.4978C177.3 87.1489 177.348 86.8017 177.442 86.4659L181.125 69.1719L176.375 69.8124L172.959 85.8253C172.751 86.6094 172.394 87.3463 171.909 87.996C171.735 88.2475 171.504 88.4544 171.235 88.5997C170.966 88.7451 170.667 88.8247 170.361 88.8322C170.178 88.8537 169.993 88.8326 169.82 88.7705C169.646 88.7084 169.49 88.607 169.362 88.4743C169.235 88.3416 169.14 88.1812 169.084 88.0056C169.029 87.83 169.016 87.644 169.044 87.4622C169.039 87.1142 169.081 86.767 169.169 86.4303L171.482 75.5415H166.874L166.518 77.3207V77.1072C166.522 76.8703 166.465 76.6364 166.353 76.4278C166.241 76.2191 166.077 76.0426 165.877 75.9151C165.284 75.5742 164.602 75.4193 163.92 75.4703C163.095 75.4542 162.274 75.6033 161.507 75.9088C160.741 76.2144 160.042 76.6702 159.454 77.2495C158.187 78.4822 157.225 79.9929 156.643 81.662C156.036 83.2536 155.717 84.9404 155.7 86.6438C155.634 87.3438 155.707 88.0499 155.915 88.7216C156.122 89.3934 156.46 90.0175 156.91 90.5581C157.304 90.9639 157.778 91.2839 158.301 91.4982C158.825 91.7125 159.387 91.8165 159.952 91.8035C160.919 91.8306 161.868 91.5434 162.657 90.9851C163.457 90.3913 164.154 89.67 164.721 88.85C164.762 89.6761 165.111 90.4569 165.699 91.0385C166.288 91.5668 167.062 91.8417 167.852 91.8035C169.138 91.7771 170.382 91.3476 171.411 90.5759C171.977 90.1123 172.464 89.5594 172.852 88.939C172.948 89.6018 173.239 90.2211 173.688 90.7182C174.015 91.0408 174.405 91.2926 174.833 91.4579C175.262 91.6232 175.72 91.6984 176.179 91.679C177.501 91.6428 178.783 91.2156 179.862 90.4513C180.493 90.0017 181.031 89.4337 181.445 88.7789C181.638 89.4125 181.987 89.9877 182.46 90.4513C183.482 91.3227 184.802 91.7629 186.143 91.679C187.557 91.6522 188.946 91.2995 190.202 90.6484C191.458 89.9973 192.547 89.0653 193.384 87.9248L192.637 91.4833H197.245L199.433 81.1994C199.629 80.4339 199.974 79.7144 200.447 79.0821C200.607 78.8341 200.825 78.6294 201.083 78.4866C201.34 78.3437 201.63 78.2671 201.924 78.2637C202.689 78.2637 203.081 78.7974 203.081 79.8828C203.069 80.4825 202.991 81.0791 202.849 81.662C202.707 82.3915 202.547 83.1387 202.369 83.886C202.369 84.0283 202.244 84.3664 202.138 84.9002C202.031 85.4339 201.906 85.9855 201.8 86.5548C201.7 87.053 201.646 87.5592 201.64 88.0672C201.609 89.0103 201.932 89.9309 202.547 90.647C202.917 91.0234 203.366 91.3129 203.861 91.4945C204.356 91.676 204.886 91.7451 205.411 91.6968C206.591 91.6709 207.727 91.2442 208.632 90.4869C209.162 90.0493 209.608 89.5187 209.948 88.9212C210.015 89.5631 210.248 90.1764 210.625 90.7004C210.921 91.0456 211.294 91.3158 211.715 91.489C212.135 91.6622 212.591 91.7334 213.044 91.6968C213.726 91.6942 214.388 91.4693 214.93 91.0562C215.657 90.3795 216.176 89.5091 216.425 88.5475C216.161 88.6331 215.883 88.6693 215.606 88.6543C215.452 88.6724 215.295 88.6546 215.148 88.6023C215.001 88.5501 214.869 88.4647 214.76 88.3528C214.652 88.241 214.571 88.1057 214.523 87.9574C214.475 87.8091 214.463 87.6519 214.485 87.4978C214.498 87.1195 214.552 86.7436 214.646 86.3769L216.692 76.7691H218.613L218.862 75.4881L216.941 75.5237ZM187.779 78.9576C188.527 77.6054 189.274 76.9293 190.039 76.9293C190.804 76.9293 190.84 77.3741 190.84 78.2459C190.843 79.1196 190.616 79.9789 190.181 80.7368C189.749 81.519 189.14 82.1892 188.402 82.6939C187.749 83.1921 186.962 83.4834 186.143 83.5302C186.443 81.929 186.995 80.3856 187.779 78.9576ZM164.65 85.8075C164.505 86.5856 164.133 87.3035 163.582 87.8714C163.174 88.32 162.604 88.5887 161.999 88.6187C161.789 88.6258 161.579 88.59 161.383 88.5135C161.188 88.437 161.01 88.3215 160.86 88.1739C160.471 87.5671 160.307 86.843 160.397 86.1278C160.427 84.8748 160.618 83.631 160.967 82.427C161.305 81.1624 161.846 79.9607 162.568 78.8686C162.799 78.4485 163.132 78.0932 163.536 77.8352C163.94 77.5772 164.403 77.4248 164.881 77.3919C165.066 77.3763 165.252 77.4035 165.425 77.4714C165.597 77.5393 165.752 77.646 165.877 77.7833C166.077 78.0098 166.191 78.2997 166.198 78.6017L164.65 85.8075Z" fill="white"/>
</g>
<defs>
<clipPath id="clip0">
<rect width="359.961" height="29" fill="white" transform="translate(0 64.3364)"/>
</clipPath>
</defs>
</svg>
