<svg width="360" height="91" viewBox="0 0 360 91" fill="none" xmlns="http://www.w3.org/2000/svg">
<g clip-path="url(#clip0)">
<path d="M178.42 70.9349C197.165 70.9349 212.36 55.7395 212.36 36.9949C212.36 18.2504 197.165 3.05493 178.42 3.05493C159.675 3.05493 144.48 18.2504 144.48 36.9949C144.48 55.7395 159.675 70.9349 178.42 70.9349Z" fill="#F3B952"/>
<path d="M188.7 25.5049C191.456 25.5037 194.169 26.1876 196.595 27.495C199.022 28.8024 201.085 30.6924 202.6 32.9949C202.253 31.1452 201.446 29.4127 200.253 27.9566C199.061 26.5006 197.521 25.3679 195.776 24.6628C194.031 23.9576 192.137 23.7027 190.268 23.9216C188.399 24.1404 186.615 24.8258 185.08 25.9149C186.268 25.6464 187.482 25.5089 188.7 25.5049Z" fill="#8E2948"/>
<path d="M159.46 23.6748C161.998 22.4451 164.802 21.8661 167.62 21.99C170.437 22.114 173.18 22.937 175.6 24.3848C174.455 22.8362 172.939 21.6001 171.192 20.7903C169.445 19.9805 167.522 19.6228 165.6 19.7503C163.678 19.8777 161.82 20.4862 160.194 21.5197C158.569 22.5531 157.23 23.9785 156.3 25.6648C157.276 24.8856 158.335 24.2181 159.46 23.6748V23.6748Z" fill="#8E2948"/>
<path d="M181.72 37.1149C181.72 37.1149 192.72 37.9349 198.1 38.0349C203.48 38.1349 206.39 41.4149 205.27 45.8149C204.15 50.2149 195.62 67.1949 175.88 64.9549C156.3 62.7349 147.83 43.8649 149.47 35.0649C151.11 26.2649 160.53 31.2749 160.53 31.2749C160.53 31.2749 167.36 34.4949 181.72 37.1149Z" fill="#8E2948"/>
<path d="M191.63 44.6149C191.595 43.3468 191.288 42.1009 190.729 40.9621C190.17 39.8233 189.372 38.8181 188.39 38.0149L184.54 37.8149C179.76 37.1449 175.63 36.4449 172.11 35.8149C168 37.5249 165.22 40.8149 165.22 44.6649C165.22 50.2349 171.13 54.7549 178.42 54.7549C185.71 54.7549 191.63 50.1949 191.63 44.6149Z" fill="#791C39"/>
<path d="M176.7 36.895C176.7 36.895 176.16 41.445 175.26 43.155C174.36 44.865 174.75 47.395 177.16 47.225C179.57 47.055 179.34 45.395 179.38 42.415C179.391 40.7055 179.709 39.0118 180.32 37.415L176.7 36.895Z" fill="#8E2948"/>
<path fill-rule="evenodd" clip-rule="evenodd" d="M178.66 37.1948L178.78 36.5548C166.44 34.0648 160.53 31.2848 160.53 31.2848C158.948 30.4887 157.226 30.0097 155.46 29.8748L155.3 30.3948C155.16 30.9063 155.123 31.4406 155.191 31.9666C155.26 32.4925 155.432 32.9997 155.698 33.4584C155.964 33.9172 156.319 34.3185 156.742 34.6389C157.164 34.9593 157.646 35.1924 158.16 35.3248C158.86 35.5445 159.606 35.5761 160.322 35.4164C161.038 35.2567 161.7 34.9112 162.24 34.4148C162.391 35.1643 162.743 35.8585 163.26 36.4224C163.776 36.9863 164.437 37.3986 165.17 37.6148C166.062 37.9051 167.026 37.883 167.904 37.5522C168.782 37.2214 169.521 36.6016 170 35.7948C169.939 36.8834 170.283 37.9563 170.966 38.8062C171.649 39.656 172.623 40.2227 173.699 40.3967C174.776 40.5707 175.878 40.3398 176.795 39.7485C177.711 39.1571 178.375 38.2473 178.66 37.1948ZM203.09 39.4147C201.591 38.4821 199.855 38.0028 198.09 38.0347C192.66 37.9347 181.71 37.1147 181.71 37.1147L179 36.5847L178.9 37.6947C178.886 38.708 179.241 39.6917 179.899 40.4628C180.556 41.2338 181.472 41.7398 182.474 41.8866C183.477 42.0333 184.499 41.8108 185.35 41.2604C186.201 40.7101 186.823 39.8694 187.1 38.8947C187.277 39.8275 187.754 40.677 188.458 41.3141C189.162 41.9513 190.054 42.3412 191 42.4247C191.854 42.5276 192.72 42.379 193.491 41.9971C194.262 41.6152 194.904 41.0166 195.34 40.2747C195.668 40.8875 196.143 41.4093 196.723 41.7933C197.302 42.1772 197.968 42.4114 198.66 42.4747C199.645 42.5961 200.64 42.3515 201.457 41.7874C202.274 41.2233 202.855 40.379 203.09 39.4147ZM192.251 57.5833C192.61 57.0423 193.089 56.5911 193.65 56.2648C194.423 55.7804 195.335 55.5676 196.242 55.66C197.15 55.7523 198.001 56.1446 198.66 56.7748C195.808 59.8763 192.246 62.2405 188.281 63.665C184.315 65.0896 180.064 65.5322 175.89 64.9548C171.101 64.4234 166.511 62.7465 162.508 60.0659C158.504 57.3854 155.205 53.78 152.89 49.5548L153.24 49.2548C153.646 48.9145 154.116 48.6583 154.622 48.5011C155.128 48.3439 155.66 48.2888 156.188 48.3391C156.715 48.3893 157.228 48.5439 157.695 48.7938C158.162 49.0437 158.575 49.3839 158.91 49.7948C159.411 50.3485 159.754 51.0267 159.904 51.7585C160.054 52.4903 160.004 53.2488 159.76 53.9548C160.298 53.2192 161.066 52.6834 161.942 52.4318C162.818 52.1801 163.753 52.2269 164.6 52.5648C165.103 52.7316 165.568 52.9967 165.968 53.3448C166.368 53.693 166.695 54.1171 166.929 54.5926C167.164 55.068 167.301 55.5854 167.334 56.1145C167.367 56.6437 167.294 57.174 167.12 57.6748L166.9 58.2548L167 58.3348C167.419 57.4394 168.132 56.7142 169.02 56.279C169.908 55.8439 170.918 55.7249 171.882 55.9419C172.847 56.1588 173.709 56.6987 174.325 57.4721C174.941 58.2455 175.274 59.2061 175.27 60.1948C175.644 59.5115 176.189 58.9368 176.852 58.5267C177.514 58.1166 178.271 57.8851 179.05 57.8548C179.967 57.7904 180.881 58.0141 181.664 58.4946C182.448 58.9751 183.062 59.6884 183.42 60.5348C183.603 59.8022 183.97 59.1285 184.486 58.5773C185.003 58.0261 185.651 57.6157 186.37 57.3848C187.334 57.042 188.389 57.0551 189.345 57.4219C190.3 57.7886 191.093 58.4848 191.58 59.3848C191.662 58.7408 191.892 58.1243 192.251 57.5833Z" fill="white"/>
<path d="M158.88 49.795C159.381 50.3487 159.724 51.0269 159.874 51.7587C160.024 52.4905 159.974 53.249 159.73 53.955C160.268 53.2194 161.036 52.6836 161.912 52.432C162.788 52.1803 163.723 52.2272 164.57 52.565C165.073 52.7318 165.538 52.997 165.938 53.3451C166.338 53.6932 166.665 54.1173 166.899 54.5928C167.134 55.0682 167.271 55.5856 167.304 56.1147C167.337 56.6439 167.264 57.1743 167.09 57.675L166.98 57.975L167.12 58.045C167.585 57.1927 168.321 56.5208 169.213 56.1366C170.104 55.7524 171.099 55.6782 172.038 55.9258C172.976 56.1734 173.805 56.7286 174.391 57.5025C174.977 58.2764 175.286 59.2244 175.27 60.195C175.638 59.5024 176.18 58.9176 176.843 58.4985C177.506 58.0794 178.266 57.8403 179.05 57.805C179.967 57.7406 180.881 57.9643 181.664 58.4448C182.448 58.9253 183.062 59.6386 183.42 60.485C183.603 59.7524 183.97 59.0787 184.486 58.5275C185.003 57.9763 185.651 57.5659 186.37 57.335C187.334 56.9922 188.389 57.0053 189.345 57.3721C190.3 57.7388 191.093 58.435 191.58 59.335C191.662 58.691 191.892 58.0746 192.251 57.5335C192.61 56.9925 193.089 56.5413 193.65 56.215H193.71C193.08 54.825 189.31 51.765 184.48 50.525C179.32 49.205 179.85 50.475 174.72 50.355C169.59 50.235 169.05 48.285 164.84 47.605C163.705 47.409 162.541 47.4603 161.428 47.7554C160.315 48.0505 159.279 48.5825 158.39 49.315C158.566 49.4615 158.73 49.622 158.88 49.795V49.795Z" fill="#EA4357"/>
<path d="M222.29 29.555C222.29 29.555 223.49 25.265 213.22 27.915C213.22 27.915 216.94 28.375 218.09 29.065C219.24 29.755 221.06 31.195 222.29 29.555Z" fill="#0D8C99"/>
<path d="M218.76 45.8649C218.76 45.8649 221.57 43.8649 214.1 40.4749C215.019 41.3878 215.816 42.4164 216.47 43.5349C216.83 44.5049 217.25 46.1949 218.76 45.8649Z" fill="#0D8C99"/>
<path d="M216.29 37.9549C216.29 37.9549 220.21 33.095 205.51 30.825C205.51 30.825 210.05 33.4649 211.15 34.9949C212.25 36.5249 213.82 39.3149 216.29 37.9549Z" fill="#0D8C99"/>
<path d="M139.36 19.465C139.36 19.465 139.48 15.015 148.51 20.585C148.51 20.585 144.83 19.925 143.51 20.245C142.19 20.565 140.07 21.355 139.36 19.465Z" fill="#0D8C99"/>
<path d="M137.91 36.095C137.91 36.095 135.81 33.365 144 32.325C142.853 32.9265 141.787 33.6726 140.83 34.5449C140.16 35.3649 139.25 36.885 137.91 36.095Z" fill="#0D8C99"/>
<path d="M142.61 29.2648C142.61 29.2648 140.3 23.4648 155 25.6448C155 25.6448 149.88 26.8348 148.38 27.9648C146.88 29.0948 144.57 31.3048 142.61 29.2648Z" fill="#0D8C99"/>
</g>
<path d="M213.289 62.1547L214.681 55.6604L206.486 56.76V56.8974H206.245V57.0349H206.005V57.1723H205.781V57.3097H205.558V57.4472H205.335V57.5846H205.111V57.7221H204.888V57.8595H204.665V57.997H204.458V58.1344H204.252L203.548 61.708C201.711 61.82 199.977 62.5954 198.668 63.89V63.89C198.64 63.8839 198.611 63.8839 198.583 63.89L198.479 63.9758H198.394H198.29V64.0618H198.187H198.102C197.809 63.0055 197.147 62.0896 196.235 61.4809C195.324 60.8722 194.224 60.6114 193.136 60.7459C192.028 60.7141 190.925 60.9079 189.895 61.3155C188.864 61.7231 187.927 62.3359 187.14 63.1168C186.049 64.1891 185.164 65.4528 184.529 66.845C184.529 66.5873 184.529 66.3468 184.529 66.1063C184.565 65.392 184.453 64.6779 184.199 64.0094C183.944 63.3409 183.553 62.7327 183.051 62.2234C182.047 61.317 180.726 60.8418 179.375 60.9005C177.961 60.8948 176.586 61.367 175.475 62.2406C175.003 61.7761 174.441 61.4141 173.823 61.1776C173.205 60.941 172.545 60.835 171.884 60.8661C171.393 60.8654 170.903 60.9172 170.423 61.0208H161.919L161.352 64.8005L161.215 64.6803L161.026 64.5085C160.955 64.4605 160.891 64.4027 160.837 64.3367L160.63 64.1648L160.441 63.993L160.235 63.8212L160.046 63.6494L159.84 63.4776L159.634 63.3058L159.428 63.134C158.362 62.2712 157.018 61.8255 155.648 61.8798C154.852 61.8791 154.06 61.9889 153.294 62.2062C153.294 62.2062 153.294 62.0688 153.294 62.0001C153.347 61.1491 153.201 60.2976 152.867 59.5132C152.532 58.7288 152.02 58.0331 151.37 57.4815C151.061 57.2397 150.727 57.0323 150.373 56.863L150.081 56.6912L149.772 56.5194L149.463 56.3476L149.154 56.1758L148.844 56.004L148.535 55.8322L148.226 55.6604L147.899 55.4886L147.573 55.3168C146.342 54.7268 144.986 54.4438 143.621 54.4921C142.219 54.4586 140.826 54.73 139.538 55.2877C138.251 55.8454 137.1 56.676 136.165 57.7221C134.361 59.761 133.039 62.1804 132.299 64.8005C131.559 67.224 131.165 69.7403 131.131 72.2741C130.951 74.7861 131.731 77.2728 133.313 79.2323C134.117 80.0276 135.101 80.617 136.182 80.9504L136.629 81.1222L137.058 81.294L137.488 81.4658L137.917 81.6376L138.347 81.8094L138.759 81.9812L139.172 82.153L139.584 82.3249L139.979 82.4967C141.115 82.9772 142.337 83.217 143.57 83.2011C144.749 83.1769 145.913 82.9382 147.006 82.4967C147.975 82.1032 148.879 81.5644 149.686 80.8989H149.858C149.95 80.9656 150.047 81.0232 150.15 81.0707L150.459 81.2425C150.551 81.3092 150.649 81.3668 150.751 81.4143L151.044 81.5861L151.336 81.7579C152.383 82.4337 153.612 82.7753 154.858 82.7372C156.251 82.7286 157.602 82.2639 158.706 81.4143H158.861V81.5861H159.084V81.7579H159.325V81.9297H159.565V82.1015H159.789V82.2733H160.029V82.4451H160.27V82.6169H174.392L175.268 78.0125C175.32 78.1837 175.32 78.1837 175.371 78.3557C175.371 78.3561 175.371 78.4764 175.371 78.5279V78.6997V78.8715V79.0433C175.371 79.0433 175.371 79.1636 175.371 79.2151V79.387C175.573 80.0115 175.888 80.5937 176.299 81.105C176.738 81.6433 177.299 82.0691 177.935 82.347C178.572 82.6249 179.266 82.7469 179.959 82.7028C181.355 82.672 182.692 82.1347 183.721 81.1909C184.279 81.7258 184.94 82.1418 185.664 82.4135C186.387 82.6852 187.158 82.807 187.931 82.7716C190.11 82.7623 192.202 81.9131 193.772 80.4006C193.913 80.6266 194.074 80.8393 194.253 81.0363C194.716 81.5808 195.293 82.0169 195.943 82.3138C196.593 82.6106 197.301 82.7611 198.016 82.7544C199.214 82.7713 200.38 82.3703 201.314 81.6205L201.469 81.5002C201.524 81.4643 201.575 81.4241 201.624 81.3799V81.3799L201.847 81.6033C202.628 82.333 203.664 82.7278 204.733 82.7028C205.85 82.7088 206.946 82.3991 207.895 81.8094L208.187 81.6376L208.479 81.4658H208.616C208.879 81.7499 209.173 82.0035 209.492 82.2218C208.99 83.2072 208.787 84.318 208.908 85.4174C208.895 86.1052 209.024 86.7882 209.287 87.4238C209.551 88.0594 209.942 88.6338 210.437 89.1112C211.32 89.983 212.512 90.4708 213.753 90.4685C214.794 90.4732 215.819 90.2068 216.725 89.6954L217.069 89.5407L217.447 89.369L217.859 89.18L218.203 89.0253L218.632 88.8364L218.993 88.6817L219.388 88.5099L219.818 88.3209L220.179 88.1663C220.75 87.933 221.292 87.6332 221.794 87.2729C223.354 85.9709 224.371 84.1324 224.646 82.1187L228.855 62.1032L213.289 62.1547ZM147.109 65.5908L147.453 65.7626L147.779 65.9345L148.088 66.1063C147.364 67.1072 146.785 68.2064 146.37 69.3706C145.896 70.7431 145.591 72.1681 145.46 73.6142C145.092 73.9914 144.669 74.3101 144.206 74.5592C143.999 74.6623 143.759 74.7138 143.536 74.7997C143.536 74.5076 143.536 74.164 143.536 73.7689C143.552 71.7078 143.805 69.6555 144.292 67.6525C144.542 66.6369 144.858 65.6384 145.236 64.6631C145.236 64.6631 145.34 64.6631 145.391 64.6631L145.735 64.8349L146.078 65.0067L146.422 65.1785L146.748 65.3503L147.109 65.5908ZM192.964 74.5935L192.793 74.731C192.648 74.8044 192.499 74.8676 192.346 74.92C192.552 74.7653 192.793 74.6279 192.982 74.4561C192.984 74.4969 192.978 74.5377 192.964 74.5764V74.5935Z" fill="#141515"/>
<path d="M222.326 63.8728L220.213 73.8033C220.026 74.531 219.687 75.2104 219.216 75.7962C219.038 76.0214 218.81 76.2032 218.552 76.3282C218.293 76.4531 218.009 76.5179 217.722 76.5178C217.103 76.5178 216.794 76.0711 216.794 75.1605C216.792 74.8993 216.827 74.6391 216.897 74.3874L219.216 63.8728H214.681L212.585 73.8033C212.385 74.5241 212.04 75.1965 211.571 75.779C211.395 76.0083 211.169 76.1941 210.909 76.3222C210.65 76.4503 210.365 76.5172 210.076 76.5178C209.73 76.5485 209.383 76.4573 209.097 76.2601C208.99 76.1427 208.908 76.004 208.858 75.8531C208.807 75.7021 208.789 75.5423 208.805 75.3839C208.799 75.0478 208.84 74.7126 208.925 74.3874L212.482 57.6878L207.911 58.3063L206.4 65.4191V65.2988C206.403 65.0701 206.348 64.8443 206.24 64.6428C206.132 64.4413 205.974 64.2708 205.781 64.1477C205.208 63.8185 204.55 63.6689 203.891 63.7182C203.094 63.7026 202.302 63.8466 201.561 64.1416C200.821 64.4367 200.147 64.8769 199.579 65.4363C198.364 66.6437 197.441 68.1128 196.881 69.7314C196.359 71.1724 196.057 72.6843 195.988 74.2156C195.324 74.9434 194.581 75.5945 193.772 76.157C192.912 76.6908 191.914 76.9597 190.903 76.9301C190.594 76.9579 190.283 76.9236 189.988 76.8291C189.693 76.7347 189.42 76.5821 189.185 76.3804C188.77 75.7775 188.587 75.0455 188.669 74.3187C188.669 74.1125 188.669 73.7002 188.669 73.0817C189.874 73.005 191.047 72.6648 192.105 72.0852C193.162 71.5304 194.07 70.7289 194.751 69.7486C195.395 68.8142 195.737 67.7049 195.73 66.5702C195.73 64.5772 194.596 63.5979 192.294 63.5979C191.41 63.567 190.528 63.7172 189.704 64.0392C188.88 64.3612 188.13 64.8483 187.501 65.4706C186.264 66.7257 185.356 68.2656 184.855 69.9548C184.326 71.4692 184.042 73.0583 184.013 74.6623V74.6623C183.825 75.0833 183.588 75.4811 183.309 75.8478C183.127 76.0664 182.898 76.2405 182.639 76.3567C182.38 76.4728 182.098 76.528 181.814 76.5178C181.638 76.5385 181.46 76.5182 181.293 76.4586C181.126 76.399 180.975 76.3017 180.852 76.1742C180.657 75.8987 180.561 75.5661 180.577 75.2293C180.594 74.7423 180.663 74.2585 180.783 73.7861C180.921 73.1848 181.058 72.5491 181.23 71.9134C181.505 70.8596 181.711 69.9662 181.848 69.2332C181.984 68.5772 182.059 67.91 182.072 67.2402C182.109 66.7616 182.046 66.2804 181.886 65.8276C181.727 65.3748 181.474 64.9606 181.144 64.6116C180.448 64.0157 179.551 63.7084 178.636 63.7525C177.751 63.7715 176.887 64.0248 176.133 64.4866C175.378 64.9484 174.76 65.6022 174.34 66.3812C174.308 65.9955 174.199 65.6201 174.021 65.2767C173.842 64.9334 173.597 64.629 173.3 64.3812C173.002 64.1334 172.659 63.9472 172.289 63.8334C171.919 63.7196 171.53 63.6804 171.145 63.7182C170.43 63.7091 169.721 63.8585 169.071 64.1555C168.42 64.4526 167.844 64.8899 167.382 65.4363L167.726 63.8213H163.259L162.52 68.0134H162.417C161.674 68.34 160.875 68.5208 160.063 68.546H159.72C159.72 65.2473 158.397 63.5979 155.768 63.5979C154.879 63.5683 153.992 63.719 153.163 64.0408C152.333 64.3626 151.577 64.849 150.94 65.4706C149.633 66.7096 148.648 68.2488 148.071 69.9548C147.563 71.3746 147.273 72.8634 147.212 74.3702C146.61 75.072 145.881 75.6547 145.064 76.0883C144.004 76.6378 142.823 76.9152 141.628 76.8958C141.079 76.9603 140.521 76.8801 140.012 76.6631C139.503 76.4462 139.059 76.1 138.725 75.6588C138.123 74.5617 137.843 73.3171 137.917 72.068C137.936 69.8558 138.242 67.6555 138.828 65.5222C139.324 63.522 140.136 61.6139 141.233 59.8697C141.524 59.2641 141.963 58.7418 142.51 58.3513C143.056 57.9608 143.693 57.7148 144.36 57.6362C144.621 57.6073 144.886 57.6387 145.133 57.7281C145.38 57.8175 145.604 57.9623 145.786 58.1516C146.098 58.5333 146.257 59.0168 146.233 59.5089C146.232 60.1081 146.085 60.6981 145.803 61.227C145.599 61.6907 145.257 62.0806 144.824 62.3437C145.028 62.602 145.29 62.8093 145.588 62.9494C145.886 63.0895 146.213 63.1586 146.542 63.1512C146.869 63.1841 147.199 63.1317 147.5 62.9993C147.802 62.8668 148.063 62.6587 148.26 62.3953C148.636 61.7631 148.815 61.0335 148.775 60.2992C148.818 59.7004 148.71 59.1004 148.461 58.5541C148.212 58.0078 147.83 57.5328 147.349 57.1723C146.237 56.4707 144.934 56.1344 143.621 56.2102C142.457 56.1792 141.301 56.4031 140.232 56.866C139.164 57.329 138.21 58.0199 137.436 58.8904C135.789 60.7299 134.584 62.922 133.914 65.2988C133.222 67.5666 132.851 69.9205 132.815 72.2914C132.638 74.3847 133.251 76.4682 134.533 78.1328C135.222 78.7659 136.038 79.2462 136.926 79.5423C137.814 79.8384 138.755 79.9435 139.687 79.8509C142.085 79.8058 144.39 78.9177 146.198 77.3425C146.648 76.948 147.051 76.5042 147.401 76.0196C147.527 76.8931 147.945 77.6982 148.586 78.3046C149.609 79.129 150.9 79.5453 152.212 79.4729C153.447 79.4635 154.649 79.0669 155.648 78.339C156.776 77.4942 157.678 76.385 158.276 75.109C158.997 73.5566 159.428 71.8855 159.548 70.1781C160.439 70.036 161.31 69.788 162.142 69.4394L160.046 79.3698H164.496L166.592 69.4394C166.789 68.6861 167.133 67.9794 167.606 67.3605C167.772 67.1177 167.995 66.919 168.256 66.7814C168.516 66.6437 168.806 66.5712 169.1 66.5702C169.719 66.5702 170.028 67.0169 170.028 67.9275C170.03 68.1887 169.995 68.4489 169.925 68.7006L167.674 79.3355H172.124L174.237 69.405C174.426 68.6658 174.759 67.971 175.217 67.3605C175.37 67.121 175.581 66.9234 175.83 66.7854C176.079 66.6475 176.358 66.5735 176.643 66.5702C177.381 66.5702 177.759 67.0856 177.759 68.1336C177.748 68.7127 177.673 69.2889 177.536 69.8517C177.399 70.5561 177.244 71.2777 177.072 71.9993C177.072 72.1367 176.952 72.4632 176.849 72.9786C176.746 73.494 176.625 74.0266 176.522 74.5764C176.426 75.0574 176.374 75.5463 176.368 76.0368C176.338 76.9475 176.65 77.8364 177.244 78.528C177.601 78.8914 178.034 79.1709 178.513 79.3463C178.991 79.5216 179.503 79.5883 180.01 79.5416C181.149 79.5166 182.246 79.1046 183.12 78.3733C183.632 77.9508 184.063 77.4385 184.391 76.8614C184.588 77.4252 184.911 77.9364 185.336 78.3562C186.323 79.1976 187.598 79.6227 188.892 79.5416C190.291 79.5105 191.664 79.1543 192.901 78.5012C194.139 77.8482 195.207 76.9163 196.022 75.779C196.098 76.7299 196.485 77.6294 197.122 78.339C197.502 78.7317 197.959 79.0413 198.465 79.2483C198.971 79.4553 199.514 79.5552 200.06 79.5416C201.005 79.5569 201.93 79.2743 202.706 78.7341C203.469 78.1788 204.122 77.4853 204.63 76.6896C204.693 77.4489 205.043 78.1557 205.609 78.6654C206.179 79.1454 206.91 79.3911 207.654 79.3526C208.584 79.3542 209.5 79.1241 210.318 78.6832C211.137 78.2422 211.833 77.6044 212.344 76.8271C212.422 77.5106 212.71 78.153 213.169 78.6654C213.485 78.9769 213.861 79.22 214.275 79.3797C214.689 79.5393 215.131 79.612 215.574 79.5932C216.289 79.6034 216.998 79.4546 217.649 79.1575C218.299 78.8604 218.876 78.4223 219.337 77.8751L219.027 79.2496C218.038 79.5364 217.068 79.8864 216.124 80.2976C215.447 80.6005 214.857 81.0669 214.406 81.6548C213.923 82.2962 213.68 83.0864 213.719 83.8883C213.709 84.3437 213.803 84.7953 213.993 85.209C214.184 85.6227 214.466 85.9877 214.818 86.2765C215.519 86.8966 216.425 87.2335 217.361 87.2214C218.602 87.2291 219.811 86.8242 220.797 86.0703C222.007 85.0188 222.785 83.5557 222.979 81.9641L226.759 64.0274L222.326 63.8728ZM190.49 67.1887C191.195 65.883 191.916 65.2301 192.672 65.2301C193.428 65.2301 193.445 65.6596 193.445 66.5015C193.44 67.3441 193.222 68.1716 192.81 68.9068C192.391 69.6614 191.803 70.3083 191.092 70.7966C190.466 71.2745 189.712 71.5556 188.927 71.6041C189.196 70.0548 189.724 68.562 190.49 67.1887V67.1887ZM156.971 70.2469C156.829 71.3609 156.564 72.4558 156.18 73.5112C155.883 74.3543 155.441 75.1391 154.875 75.8306C154.701 76.0708 154.478 76.2705 154.22 76.4159C153.962 76.5612 153.675 76.6488 153.38 76.6724C153.151 76.6966 152.92 76.6638 152.707 76.5768C152.494 76.4899 152.306 76.3516 152.16 76.1742C151.868 75.547 151.749 74.8528 151.816 74.1641C151.842 72.9288 152.039 71.7031 152.401 70.5218C152.743 69.2682 153.263 68.0705 153.947 66.9653C154.583 65.9689 155.253 65.4878 155.923 65.4878C156.089 65.4692 156.257 65.4942 156.411 65.5605C156.565 65.6268 156.698 65.732 156.799 65.8658C157 66.3082 157.106 66.7884 157.108 67.2746C156.781 67.4148 156.509 67.6593 156.335 67.97C156.161 68.2808 156.094 68.6403 156.146 68.9927C156.146 69.6799 156.421 70.1266 156.971 70.2469V70.2469ZM204.596 73.8033V73.9579C204.463 74.682 204.102 75.3445 203.565 75.8478C203.168 76.2509 202.635 76.4901 202.07 76.5178C201.867 76.5246 201.665 76.49 201.476 76.4162C201.287 76.3424 201.115 76.2308 200.97 76.0883C200.586 75.5059 200.428 74.8035 200.524 74.1125C200.544 72.9019 200.729 71.6996 201.074 70.5389C201.401 69.3177 201.923 68.1574 202.62 67.1028C202.841 66.6951 203.161 66.3503 203.552 66.1008C203.943 65.8514 204.391 65.7054 204.853 65.6768C205.16 65.6662 205.46 65.7718 205.692 65.9724C205.925 66.1731 206.073 66.454 206.108 66.7592L204.596 73.8033ZM218.512 81.8954C218.402 82.5654 218.137 83.2007 217.739 83.7509C217.617 83.9171 217.46 84.0542 217.279 84.1522C217.097 84.2503 216.897 84.3068 216.691 84.3179C216.374 84.3167 216.069 84.2007 215.832 83.9914C215.719 83.9105 215.627 83.805 215.561 83.6829C215.496 83.5608 215.459 83.4255 215.454 83.287C215.444 82.9216 215.52 82.559 215.675 82.228C215.83 81.897 216.06 81.6066 216.347 81.38C217.111 80.7979 217.972 80.3558 218.89 80.0742L218.512 81.8954Z" fill="white"/>
<defs>
<clipPath id="clip0">
<rect width="84.66" height="67.89" fill="white" transform="translate(137.67 3.05493)"/>
</clipPath>
</defs>
</svg>
