<svg width="361" height="81" viewBox="0 0 361 81" fill="none" xmlns="http://www.w3.org/2000/svg">
<g clip-path="url(#clip0)">
<path d="M209.267 32.1131C208.791 31.4476 208.214 30.8605 207.557 30.3731C208.12 29.5892 208.423 28.6483 208.423 27.6831C208.423 26.7178 208.12 25.7769 207.557 24.9931C207.219 24.5175 206.791 24.1131 206.297 23.8031C206.26 22.87 205.939 21.9703 205.378 21.2236C204.817 20.477 204.043 19.9187 203.157 19.6231C202.808 18.8889 202.273 18.2593 201.604 17.7977C200.935 17.336 200.157 17.0585 199.347 16.9931C198.955 16.2586 198.372 15.6439 197.658 15.2143C196.945 14.7847 196.129 14.5562 195.297 14.5531H195.137C194.304 13.8309 193.239 13.4333 192.137 13.4331C191.695 13.4354 191.257 13.5063 190.837 13.6431C190.174 12.9379 189.305 12.4611 188.355 12.2814C187.404 12.1017 186.421 12.2283 185.547 12.6431C184.777 12.1112 183.862 11.8285 182.927 11.8331C181.797 11.8389 180.708 12.2587 179.867 13.0131C178.921 12.3819 177.774 12.1244 176.649 12.2907C175.523 12.457 174.5 13.0352 173.777 13.9131C173.17 13.7714 172.542 13.7476 171.927 13.8431C170.824 14.0213 169.824 14.5976 169.117 15.4631H169.057C168.183 15.6021 167.367 15.9887 166.706 16.5771C166.045 17.1655 165.566 17.9311 165.327 18.7831C164.292 19.1095 163.405 19.7889 162.82 20.7027C162.235 21.6166 161.99 22.7068 162.127 23.7831C161.24 24.1607 160.495 24.8065 159.994 25.6297C159.494 26.453 159.264 27.4124 159.337 28.3731C158.904 29.1819 158.716 30.0993 158.797 31.0131C158.164 31.8069 157.812 32.7881 157.797 33.8031C157.008 34.4674 156.463 35.3762 156.249 36.3852C156.036 37.3943 156.165 38.4458 156.617 39.3731L157.977 38.6831H208.147V38.4731L209.057 39.7431C211.137 38.2631 211.227 34.8431 209.267 32.1131Z" fill="#FFF0C2"/>
<path d="M160.227 24.063C164.424 24.063 167.827 20.6604 167.827 16.463C167.827 12.2657 164.424 8.86304 160.227 8.86304C156.029 8.86304 152.627 12.2657 152.627 16.463C152.627 20.6604 156.029 24.063 160.227 24.063Z" fill="#057871"/>
<path d="M153.557 28.823C157.754 28.823 161.157 25.4204 161.157 21.223C161.157 17.0257 157.754 13.623 153.557 13.623C149.359 13.623 145.957 17.0257 145.957 21.223C145.957 25.4204 149.359 28.823 153.557 28.823Z" fill="#057871"/>
<path d="M167.827 28.0131C172.024 28.0131 175.427 24.6105 175.427 20.4131C175.427 16.2157 172.024 12.8131 167.827 12.8131C163.629 12.8131 160.227 16.2157 160.227 20.4131C160.227 24.6105 163.629 28.0131 167.827 28.0131Z" fill="#057871"/>
<path d="M165.397 34.4631C169.594 34.4631 172.997 31.0604 172.997 26.8631C172.997 22.6657 169.594 19.2631 165.397 19.2631C161.2 19.2631 157.797 22.6657 157.797 26.8631C157.797 31.0604 161.2 34.4631 165.397 34.4631Z" fill="#057871"/>
<path d="M156.117 34.8531C160.314 34.8531 163.717 31.4504 163.717 27.2531C163.717 23.0557 160.314 19.6531 156.117 19.6531C151.919 19.6531 148.517 23.0557 148.517 27.2531C148.517 31.4504 151.919 34.8531 156.117 34.8531Z" fill="#057871"/>
<path d="M158.883 44.4003C161.159 42.2254 159.147 36.4259 154.389 31.4468C149.631 26.4678 143.929 24.1946 141.653 26.3695C139.377 28.5444 141.389 34.3438 146.147 39.3229C150.905 44.302 156.607 46.5752 158.883 44.4003Z" fill="#0D8C99"/>
<path d="M169.868 37.6075C173.484 31.7461 174.411 25.758 171.939 24.2328C169.466 22.7076 164.531 26.2228 160.915 32.0842C157.299 37.9456 156.372 43.9337 158.845 45.4589C161.317 46.9841 166.252 43.4689 169.868 37.6075Z" fill="#0D8C99"/>
<path d="M163.06 36.0186C166.675 30.1572 167.602 24.1692 165.13 22.6439C162.658 21.1187 157.722 24.6339 154.106 30.4954C150.49 36.3568 149.563 42.3448 152.036 43.87C154.508 45.3952 159.444 41.8801 163.06 36.0186Z" fill="#11B7AD"/>
<path d="M208.73 37.1242C212.225 30.6513 213.192 24.3955 210.888 23.1517C208.585 21.9078 203.884 26.1467 200.389 32.6196C196.893 39.0925 195.927 45.3482 198.23 46.5921C200.533 47.836 205.234 43.5971 208.73 37.1242Z" fill="#0D8C99"/>
<path d="M211.64 42.4862C216.46 36.9291 218.856 31.1129 216.992 29.4952C215.127 27.8776 209.707 31.071 204.887 36.6281C200.066 42.1851 197.67 48.0013 199.535 49.619C201.4 51.2367 206.82 48.0432 211.64 42.4862Z" fill="#11B7AD"/>
<path d="M199.626 51.2697C202.087 51.0798 203.624 44.98 203.058 37.6454C202.493 30.3107 200.039 24.5187 197.577 24.7085C195.116 24.8984 193.579 30.9982 194.145 38.3328C194.711 45.6675 197.165 51.4595 199.626 51.2697Z" fill="#11B7AD"/>
<path d="M175.267 44.4331C179.464 44.4331 182.867 40.6499 182.867 35.9831C182.867 31.3163 179.464 27.5331 175.267 27.5331C171.07 27.5331 167.667 31.3163 167.667 35.9831C167.667 40.6499 171.07 44.4331 175.267 44.4331Z" fill="#FDC618"/>
<path d="M189.397 45.133C193.594 45.133 196.997 41.3498 196.997 36.683C196.997 32.0162 193.594 28.233 189.397 28.233C185.2 28.233 181.797 32.0162 181.797 36.683C181.797 41.3498 185.2 45.133 189.397 45.133Z" fill="#FDC618"/>
<path d="M183.127 34.583C185.977 34.583 188.287 32.6265 188.287 30.213C188.287 27.7995 185.977 25.843 183.127 25.843C180.277 25.843 177.967 27.7995 177.967 30.213C177.967 32.6265 180.277 34.583 183.127 34.583Z" fill="#FDC618"/>
<path d="M138.767 37.993C138.767 48.2357 142.836 58.0589 150.078 65.3015C157.321 72.5442 167.144 76.613 177.387 76.613C187.63 76.613 197.453 72.5442 204.695 65.3015C211.938 58.0589 216.007 48.2357 216.007 37.993H138.767Z" fill="#DA5D6C"/>
<path d="M138.927 41.873H215.817C215.937 40.593 216.007 39.303 216.007 37.993H138.767C138.755 39.2882 138.808 40.5832 138.927 41.873V41.873Z" fill="#98304C"/>
<path d="M191.857 21.2142L211.607 0.263062L214.427 4.20303L193.427 23.4314C193.427 23.4314 193.657 21.2658 191.857 21.2142Z" fill="#902A22"/>
<path d="M205.927 75.0731L205.607 75.1531V74.9331L205.287 75.0131V74.7931L204.977 74.8731V74.6531L204.667 74.7331V74.5131L204.357 74.5931V74.3731L204.047 74.4631V74.2331L203.747 74.3231C206.247 67.5831 207.557 64.2331 210.327 57.5731H209.957L210.017 57.4431H209.927L209.987 57.3031H209.617L209.677 57.1631H209.317V57.0231H208.957L209.017 56.8831H208.657L208.717 56.7431H208.357L208.417 56.6031H208.067V56.4631H207.727V56.3231H207.387V56.1831H207.047V56.0431H206.717V55.9031H206.727V55.7631H206.397V55.6231H206.067L206.117 55.4831H205.927V55.3431H205.627V55.2131H205.307V55.0731H204.997V54.9331H204.827V54.7931C202.317 54.7931 201.067 54.8631 198.567 54.9831C197.897 57.1731 197.567 58.2631 196.927 60.4531C196.392 60.1579 195.797 59.987 195.187 59.9531C194.341 59.8756 193.488 59.986 192.689 60.2765C191.89 60.5669 191.166 61.0301 190.567 61.6331C190.013 62.156 189.52 62.7397 189.097 63.3731C188.89 63.0015 188.627 62.6642 188.317 62.3731L188.217 62.2731C188.183 62.234 188.146 62.1972 188.107 62.1631L188.007 62.0531C187.976 62.0173 187.943 61.9839 187.907 61.9531L187.807 61.8431C187.776 61.8073 187.743 61.7739 187.707 61.7431L187.607 61.6331L187.517 61.5331L187.417 61.4231L187.327 61.3731C187.288 61.3414 187.255 61.3044 187.227 61.2631L187.137 61.1631C187.106 61.1273 187.073 61.0939 187.037 61.0631L186.927 60.9431L186.837 60.8431L186.747 60.7331L186.657 60.6331L186.567 60.5231L186.487 60.4231C186.11 60.0001 185.648 59.6619 185.131 59.4309C184.614 59.1998 184.053 59.0813 183.487 59.0831C182.553 59.0318 181.62 59.1892 180.755 59.5438C179.891 59.8984 179.116 60.4413 178.487 61.1331C177.812 61.8542 177.24 62.6652 176.787 63.5431C176.443 63.7016 176.085 63.8256 175.717 63.9131C175.357 59.6631 172.807 59.0331 171.257 59.0831C170.425 59.0896 169.602 59.2608 168.837 59.5869C168.071 59.913 167.378 60.3876 166.797 60.9831L166.697 61.0831L166.597 61.1931L166.487 61.2931L166.387 61.4031L166.277 61.5131L166.177 61.6131L166.067 61.7231L165.957 61.8231L165.847 61.9331C165.808 61.9672 165.771 62.004 165.737 62.0431L165.627 62.1431L165.547 62.2231L165.697 61.1331C164.077 61.2231 163.277 61.2731 161.697 61.3931C161.767 60.7631 161.807 60.4531 161.877 59.8231H162.877H162.987H163.087C163.999 59.6277 164.833 59.1687 165.487 58.5031L165.587 58.4131L165.687 58.3231L165.787 58.2431L165.887 58.1531C165.923 58.1259 165.956 58.0958 165.987 58.0631V58.0631C166.018 58.0304 166.051 58.0003 166.087 57.9731V57.9731C166.119 57.9457 166.149 57.9156 166.177 57.8831V57.8831L166.267 57.8031L166.367 57.7131L166.457 57.6231L166.547 57.5331C166.547 57.5331 166.607 57.5331 166.627 57.4431L166.727 57.3531L166.827 57.2531C166.859 57.2257 166.889 57.1956 166.917 57.1631V57.1631L167.007 57.0631L167.097 56.9731L167.187 56.8731L167.277 56.7831L167.367 56.6831C167.84 56.0773 168.162 55.3678 168.307 54.6131C168.427 54.0131 168.507 53.6131 168.557 53.4531C168.757 52.6931 168.857 52.3131 169.067 51.5531L167.327 52.2331C166.595 52.4992 165.825 52.6477 165.047 52.6731C164.497 52.6731 163.517 52.6731 162.217 52.6731C161.551 52.6329 160.883 52.6329 160.217 52.6731C158.15 52.768 156.137 53.3689 154.357 54.4231V54.4231C154.307 54.4231 154.227 54.4931 154.167 54.5331L153.977 54.6331L153.927 54.3731L153.727 54.4731L153.537 54.5831L153.337 54.6831L153.137 54.7831L152.927 54.8931L152.727 55.0031L152.527 55.1131L152.317 55.2131C152.25 55.2524 152.18 55.2858 152.107 55.3131V55.3131L151.897 55.4231L151.677 55.5331L151.457 55.6431L151.237 55.7531L151.007 55.8631L150.787 55.9731L150.567 56.0831L150.347 56.2031C148.427 57.0665 146.865 58.5683 145.927 60.4531C145.255 61.9013 145.032 63.5172 145.287 65.0931C145.336 65.6641 145.517 66.2158 145.816 66.7051C146.114 67.1943 146.522 67.6078 147.007 67.9131C148.078 68.4332 149.288 68.5911 150.457 68.3631L150.987 68.2831C150.517 73.2131 150.317 75.6831 149.987 80.6031C152.567 80.2331 153.857 80.0631 156.437 79.7731V79.6731H156.627V79.5731H156.817V79.4731H156.997V79.3631H157.177V79.2631H157.357V79.1631H157.537V79.0631H157.717V78.9631H157.887V78.8631H158.067V78.7631H158.237V78.6531H158.407V78.3731H158.577V78.2731H158.737V78.1731H158.907V78.0731H159.067V77.8731H159.227V77.7731H159.387V77.6731H159.547V77.5731H159.707V77.3731H159.857C160.197 73.5031 160.377 71.5731 160.777 67.7131H161.317C161.217 68.0031 161.107 68.2931 161.017 68.5931C160.557 70.2175 160.374 71.9079 160.477 73.5931C160.484 74.4081 160.667 75.2121 161.012 75.9505C161.357 76.6889 161.856 77.3446 162.477 77.8731C163.756 78.7596 165.309 79.1603 166.857 79.0031C168.311 78.9205 169.707 78.3974 170.857 77.5031C172.106 76.5321 173.101 75.2728 173.757 73.8331C173.99 73.3185 174.194 72.791 174.367 72.2531C174.367 72.4731 174.367 72.6831 174.367 72.8931C174.343 73.7419 174.511 74.5852 174.857 75.3606C175.203 76.136 175.719 76.8238 176.367 77.3731C177.573 78.3461 179.087 78.8567 180.637 78.8131C182.098 78.8407 183.533 78.4182 184.747 77.6031C185.765 76.9301 186.642 76.0637 187.327 75.0531C187.421 75.2496 187.528 75.4399 187.647 75.6231C187.839 75.8778 188.053 76.1153 188.287 76.3331C188.323 76.3639 188.356 76.3973 188.387 76.4331L188.497 76.5431L188.607 76.6531L188.707 76.7531L188.817 76.8631L188.927 76.9731L189.037 77.0731C189.071 77.1122 189.108 77.149 189.147 77.1831C189.188 77.2146 189.225 77.2516 189.257 77.2931L189.377 77.3931C189.411 77.4322 189.448 77.469 189.487 77.5031L189.607 77.6131L189.727 77.7231C189.766 77.7572 189.803 77.794 189.837 77.8331L189.957 77.9331L190.077 78.0431L190.197 78.1531C190.245 78.1843 190.288 78.2212 190.327 78.2631L190.447 78.3731C191.274 79.0363 192.28 79.4368 193.337 79.5231C194.676 79.6235 196.011 79.2713 197.127 78.5231L197.227 78.5831L197.417 78.7031L197.607 78.8231L197.807 78.9431L197.997 79.0631C198.06 79.1089 198.127 79.1491 198.197 79.1831C198.26 79.2322 198.326 79.2757 198.397 79.3131L198.597 79.4331L198.797 79.5531C199.559 80.0522 200.445 80.3271 201.356 80.3465C202.267 80.366 203.164 80.1292 203.947 79.6631C204.437 79.3533 204.858 78.9456 205.183 78.4655C205.508 77.9854 205.731 77.4432 205.837 76.8731L206.217 75.2631L205.897 75.3431L205.927 75.0731ZM170.397 64.9831H170.447V65.1331C170.42 65.164 170.397 65.1975 170.377 65.2331C170.357 65.2687 170.333 65.3022 170.307 65.3331L170.247 65.4331C170.218 65.4658 170.194 65.5029 170.177 65.5431C169.767 66.0722 169.57 66.7361 169.627 67.4031C169.617 67.7478 169.688 68.0899 169.834 68.4023C169.98 68.7147 170.197 68.9889 170.467 69.2031C170.362 70.0214 170.181 70.8282 169.927 71.6131C169.867 71.7931 169.797 71.9631 169.737 72.1231C169.632 72.1489 169.522 72.1489 169.417 72.1231C169.255 71.668 169.183 71.1856 169.207 70.7031C169.197 68.7912 169.536 66.8936 170.207 65.1031C170.26 65.0495 170.325 65.0085 170.397 64.9831V64.9831ZM183.207 66.9831L183.267 67.0831C183.265 67.1197 183.265 67.1565 183.267 67.1931L183.327 67.2931V67.3531C183.179 68.1096 182.979 68.8548 182.727 69.5831C182.501 70.2983 182.164 70.9733 181.727 71.5831C181.63 71.7111 181.519 71.8284 181.397 71.9331C181.501 71.0209 181.702 70.1225 181.997 69.2531C182.26 68.4212 182.612 67.62 183.047 66.8631C183.047 66.8631 183.177 66.9031 183.207 66.9431V66.9831Z" fill="#1D1D1B"/>
<path d="M161.997 64.3731C160.057 64.5231 159.087 64.6031 157.157 64.7931C157.467 62.3131 157.637 61.0631 157.987 58.5831C159.585 58.7864 161.198 58.85 162.807 58.7731C163.503 58.6228 164.142 58.2757 164.647 57.7731C165.085 57.3134 165.389 56.7429 165.527 56.1231C165.677 55.4931 165.787 55.1231 165.847 54.8931C164.842 55.2138 163.8 55.4021 162.747 55.4531C162.057 55.4531 160.857 55.5331 159.197 55.5131C158.277 55.5131 157.527 55.5131 156.967 55.5631C154.668 55.7113 152.426 56.3417 150.387 57.4131C148.932 58.1709 147.745 59.3579 146.987 60.8131C146.374 62.0869 146.168 63.5182 146.397 64.9131C146.42 65.3387 146.542 65.753 146.754 66.1229C146.966 66.4928 147.261 66.8079 147.617 67.0431C148.469 67.44 149.427 67.5488 150.347 67.3531C150.269 67.1856 150.171 67.0279 150.057 66.8831C149.796 66.4197 149.642 65.9037 149.607 65.3731C149.297 63.0831 149.447 61.3731 150.077 60.3731C150.417 59.8459 150.873 59.4034 151.41 59.0793C151.948 58.7552 152.552 58.5581 153.177 58.5031C152.177 66.8831 151.737 71.0731 151.107 79.4431C152.877 79.1931 153.757 79.0831 155.537 78.8731C156.007 74.1731 156.267 71.8731 156.857 67.1231C158.767 66.9231 159.727 66.8331 161.647 66.6831L161.997 64.3731Z" fill="white"/>
<path d="M202.697 75.253C202.726 74.9492 202.803 74.6521 202.927 74.373C205.247 67.993 206.467 64.813 209.037 58.503C206.987 58.443 205.927 58.423 203.927 58.373C202.927 61.093 202.407 62.453 201.427 65.183V65.053C201.455 64.8238 201.421 64.5912 201.327 64.38C201.234 64.1687 201.085 63.9867 200.897 63.8531C200.307 63.447 199.612 63.2211 198.897 63.203C197.19 62.9868 195.466 63.4501 194.097 64.493C193.256 65.1587 192.524 65.9516 191.927 66.843C191.845 66.8686 191.765 66.8987 191.687 66.933C190.874 67.2007 190.022 67.3259 189.167 67.303C189.045 67.3004 188.925 67.2836 188.807 67.253C188.997 63.983 187.657 62.253 184.807 62.153C182.897 62.0149 181.01 62.6367 179.557 63.883C178.767 64.6023 178.092 65.4387 177.557 66.363L177.347 66.453C176.557 66.7845 175.713 66.9708 174.857 67.003C174.738 67.0225 174.616 67.0225 174.497 67.003V67.003C174.497 63.733 172.987 62.103 170.127 62.203C169.17 62.1813 168.218 62.3486 167.326 62.6952C166.433 63.0418 165.618 63.561 164.927 64.223C163.663 65.5035 162.751 67.0877 162.277 68.823C161.824 70.3427 161.645 71.9307 161.747 73.513C161.741 74.1911 161.884 74.8621 162.166 75.4789C162.447 76.0956 162.861 76.6432 163.377 77.083C164.457 77.8295 165.772 78.1599 167.077 78.013C168.334 77.942 169.54 77.4923 170.537 76.723C171.65 75.8496 172.533 74.7165 173.107 73.423C173.813 71.8792 174.227 70.2178 174.327 68.523C175.129 68.3759 175.918 68.1653 176.687 67.893C176.687 68.013 176.577 68.133 176.537 68.253C175.981 69.7379 175.687 71.3078 175.667 72.893C175.617 73.5698 175.715 74.2492 175.953 74.8846C176.191 75.5199 176.564 76.096 177.047 76.573C178.073 77.3884 179.357 77.8104 180.667 77.763C181.921 77.7974 183.156 77.4486 184.207 76.763C185.38 75.9702 186.341 74.9026 187.007 73.653C187.826 72.1654 188.358 70.5372 188.577 68.8531C189.392 68.7581 190.198 68.5976 190.987 68.373C190.987 68.433 190.917 68.493 190.887 68.563C190.176 70.0369 189.748 71.6312 189.627 73.263C189.527 73.9294 189.56 74.6088 189.723 75.2625C189.886 75.9163 190.176 76.5315 190.577 77.073C190.931 77.4886 191.367 77.8272 191.857 78.068C192.347 78.3087 192.881 78.4466 193.427 78.473C194.314 78.523 195.2 78.3581 196.009 77.9925C196.819 77.6269 197.528 77.0714 198.077 76.373C198.129 77.1296 198.457 77.8408 198.997 78.373C199.55 78.8759 200.252 79.1849 200.997 79.253C201.832 79.3728 202.683 79.1921 203.397 78.743C203.772 78.4996 204.093 78.1812 204.339 77.8077C204.585 77.4342 204.751 77.0139 204.827 76.573C204.497 76.6368 204.157 76.6368 203.827 76.573C202.927 76.523 202.587 76.063 202.697 75.253ZM171.627 68.673C171.517 69.7825 171.282 70.8761 170.927 71.933C170.65 72.7831 170.227 73.5783 169.677 74.2831C169.51 74.5299 169.293 74.7387 169.039 74.8955C168.786 75.0524 168.502 75.1538 168.207 75.193C167.974 75.2293 167.735 75.2082 167.512 75.1316C167.289 75.0549 167.088 74.925 166.927 74.753C166.598 74.1395 166.443 73.4482 166.477 72.753C166.433 71.5228 166.572 70.293 166.887 69.1031C167.17 67.8304 167.664 66.6137 168.347 65.503C168.532 65.0915 168.818 64.7331 169.178 64.4606C169.538 64.1881 169.96 64.0101 170.407 63.943C170.58 63.9134 170.759 63.9302 170.924 63.9917C171.089 64.0531 171.235 64.1571 171.347 64.293C171.581 64.7195 171.708 65.1966 171.717 65.683C171.386 65.8136 171.108 66.0506 170.927 66.3566C170.746 66.6626 170.672 67.0203 170.717 67.373C170.737 68.143 171.047 68.563 171.627 68.673ZM185.927 68.773C185.711 69.873 185.376 70.946 184.927 71.973C184.589 72.7984 184.112 73.5595 183.517 74.223C183.332 74.4589 183.1 74.6524 182.834 74.7904C182.568 74.9285 182.276 75.0078 181.977 75.023C181.742 75.0453 181.506 75.0085 181.289 74.9159C181.073 74.8233 180.883 74.6779 180.737 74.493C180.448 73.8687 180.337 73.1765 180.417 72.493C180.468 71.2641 180.694 70.0486 181.087 68.883C181.461 67.6292 182.035 66.444 182.787 65.373C183.004 64.9872 183.313 64.6605 183.686 64.4217C184.059 64.1829 184.485 64.0391 184.927 64.003C185.102 63.9868 185.279 64.0171 185.438 64.0908C185.598 64.1646 185.736 64.2792 185.837 64.423C186.045 64.8626 186.142 65.3471 186.117 65.833C185.781 65.94 185.49 66.1569 185.293 66.449C185.095 66.7411 185.001 67.0913 185.027 67.443C185.017 68.183 185.297 68.623 185.927 68.773ZM198.627 73.273C198.547 73.463 198.517 73.553 198.447 73.743C198.186 74.3515 197.76 74.8746 197.217 75.253C196.799 75.5622 196.286 75.7176 195.767 75.693C195.352 75.6636 194.964 75.4735 194.687 75.163C194.353 74.5529 194.253 73.8415 194.407 73.163C194.538 71.9668 194.837 70.7951 195.297 69.683C195.753 68.4774 196.431 67.3682 197.297 66.413C197.587 66.0247 197.97 65.7146 198.409 65.5104C198.849 65.3062 199.333 65.2143 199.817 65.243C200.114 65.2866 200.388 65.432 200.59 65.6545C200.793 65.8769 200.912 66.1627 200.927 66.463C199.977 69.183 199.497 70.543 198.577 73.273H198.627Z" fill="white"/>
</g>
<defs>
<clipPath id="clip0">
<rect width="83" height="80" fill="white" transform="translate(138.767 0.460205)"/>
</clipPath>
</defs>
</svg>
