<svg width="42" height="14" viewBox="0 0 42 14" fill="none" xmlns="http://www.w3.org/2000/svg">
<path opacity="0.7" d="M26.4976 6.35105V9.32599C26.4967 9.37646 26.4748 9.42453 26.4367 9.45976C26.3987 9.49498 26.3476 9.51453 26.2944 9.51414H24.5367C24.5103 9.51422 24.4842 9.5093 24.4598 9.49967C24.4355 9.49004 24.4133 9.47589 24.3948 9.45805C24.3573 9.42217 24.3361 9.37373 24.3358 9.32315V6.34821C24.3362 6.1665 24.29 5.98745 24.201 5.82659C24.1121 5.66574 23.9832 5.52795 23.8256 5.42519C23.6734 5.3257 23.4985 5.26194 23.3154 5.23917H23.2959H23.2758H23.2257H23.1749C23.019 5.23704 22.8643 5.26487 22.72 5.321C22.5757 5.37712 22.4449 5.46038 22.3353 5.56577C22.1118 5.78114 21.9863 6.07129 21.9857 6.37377V9.32599C21.9855 9.37659 21.9642 9.42506 21.9266 9.46084C21.889 9.49661 21.838 9.5168 21.7847 9.51698H20.0195C19.9663 9.5168 19.9153 9.49661 19.8777 9.46084C19.84 9.42506 19.8188 9.37659 19.8186 9.32599V6.30703C19.8186 6.29425 19.8186 6.28147 19.8186 6.26868C19.8364 5.57477 20.0948 4.90587 20.5536 4.36586C21.0039 3.83255 21.6228 3.45116 22.3188 3.27812H22.3248H22.3308C22.7082 3.18932 23.0985 3.16124 23.4857 3.19505C23.8472 3.22828 24.2005 3.31775 24.5315 3.45988L24.5905 3.48615L24.6488 3.51313L24.6772 3.52733L24.7055 3.54153L24.7354 3.55715L24.7653 3.57277C25.2807 3.84224 25.7123 4.23602 26.0166 4.71447C26.3321 5.20761 26.4986 5.77387 26.4976 6.35105ZM11.2048 9.50278H9.44254C9.38931 9.5026 9.33831 9.48241 9.30067 9.44664C9.26303 9.41086 9.24179 9.36239 9.2416 9.31179V0.190993C9.24179 0.140396 9.26303 0.0919248 9.30067 0.0561472C9.33831 0.0203695 9.38931 0.000187051 9.44254 0L11.2048 0C11.258 0.000187051 11.309 0.0203695 11.3466 0.0561472C11.3843 0.0919248 11.4055 0.140396 11.4057 0.190993V9.31179C11.4057 9.33686 11.4005 9.36169 11.3904 9.38484C11.3802 9.40799 11.3654 9.42901 11.3467 9.44669C11.3282 9.4646 11.3061 9.47879 11.2817 9.48842C11.2573 9.49806 11.2312 9.50294 11.2048 9.50278ZM8.37207 4.97434V5.00842V5.15042V5.29242C8.37288 5.34064 8.35364 5.38722 8.31854 5.42205C8.28343 5.45688 8.2353 5.47714 8.18457 5.47844H7.38078C7.51722 5.73252 7.6117 6.00504 7.66091 6.28644C7.70575 6.55636 7.70726 6.83118 7.6654 7.10153C7.58547 7.69412 7.29877 8.24411 6.85115 8.66355C6.41265 9.06897 5.81952 9.34374 5.10612 9.44456C4.88132 9.47502 4.65484 9.49304 4.42783 9.49852C4.2 9.50562 3.97066 9.50491 3.74207 9.5042H3.49332H3.24456C3.11152 9.5045 2.98298 9.55009 2.88226 9.63272C2.83469 9.67225 2.79646 9.72091 2.77006 9.77548C2.74367 9.83006 2.72972 9.88932 2.72912 9.94938C2.72582 10.0005 2.7345 10.0516 2.75452 10.0991C2.77454 10.1467 2.80542 10.1894 2.84491 10.2242C2.94429 10.2975 3.06815 10.3343 3.19377 10.3278H3.4866H3.90343C4.33296 10.3278 4.86559 10.3278 5.3377 10.3278C5.80981 10.3278 6.22441 10.3441 6.41714 10.3683C6.91561 10.4196 7.38331 10.6225 7.75056 10.9469C8.08133 11.2476 8.29471 11.6462 8.35564 12.0773C8.39224 12.4685 8.26376 12.9108 8.12257 13.2616C8.03487 13.4814 7.93077 13.6949 7.81106 13.9006C7.79529 13.9299 7.77123 13.9545 7.74159 13.9716C7.70912 13.9902 7.67193 14 7.63402 14H5.53566C5.48227 14.0005 5.43081 13.9811 5.39223 13.946C5.35536 13.9095 5.33452 13.861 5.33396 13.8104C5.33396 13.8104 5.33396 13.7004 5.33396 13.5839C5.33396 13.4675 5.33396 13.3439 5.33396 13.3163C5.33396 13.1295 5.29064 12.9932 5.19726 12.9044C5.10388 12.8157 4.96046 12.7731 4.76175 12.7731C4.36284 12.7731 3.96469 12.7774 3.56653 12.7816C3.16837 12.7859 2.76871 12.7901 2.3713 12.7901C2.2839 12.7901 2.1965 12.7901 2.1091 12.7802C2.02183 12.7732 1.93504 12.7616 1.84914 12.7454C1.45548 12.6811 1.08727 12.5172 0.78315 12.2711C0.486817 12.0112 0.284238 11.6691 0.204213 11.2934C0.10469 10.8878 0.133273 10.4632 0.286385 10.0729C0.441401 9.6942 0.710628 9.36742 1.06029 9.13358C1.11707 9.09524 1.17533 9.05761 1.2336 9.02069L1.4084 8.91063C1.41374 8.90388 1.41662 8.89565 1.41662 8.8872C1.41662 8.87875 1.41374 8.87053 1.4084 8.86377C1.40252 8.85389 1.39465 8.84521 1.38524 8.83821C0.794355 8.50096 0.41786 8.06998 0.208695 7.57155C-0.000468676 7.07313 -0.0423015 6.50867 0.0383761 5.90232C0.10105 5.35694 0.330647 4.841 0.698737 4.4184C1.05058 4.01937 1.52494 3.71194 2.09117 3.48402C2.31549 3.39319 2.54802 3.32189 2.7859 3.27102C3.01798 3.22274 3.25382 3.19258 3.49108 3.18085H5.75677H8.16216H8.16814C8.22044 3.18096 8.27061 3.20059 8.30783 3.23552C8.34422 3.27135 8.36457 3.3192 8.3646 3.369V3.49964V3.63029V3.69206C8.3646 3.87666 8.3646 4.09463 8.3646 4.31758C8.3646 4.54052 8.3646 4.76701 8.3646 4.97363L8.37207 4.97434ZM5.53715 6.34679C5.5368 6.00973 5.41351 5.68322 5.18828 5.42288C4.96305 5.16254 4.64982 4.98447 4.30195 4.91902C3.95408 4.85357 3.59309 4.90478 3.28049 5.06393C2.9679 5.22308 2.72302 5.48032 2.58759 5.79182C2.45216 6.10333 2.43455 6.44983 2.53777 6.77229C2.64098 7.09475 2.85864 7.37322 3.15364 7.56026C3.44865 7.7473 3.80276 7.83134 4.15565 7.79805C4.50854 7.76477 4.83836 7.61622 5.08894 7.37772C5.2313 7.24233 5.34417 7.08159 5.42108 6.90468C5.49799 6.72778 5.53743 6.5382 5.53715 6.34679ZM31.5684 6.88071H33.5405C33.5707 6.88048 33.6006 6.88675 33.6279 6.89904C33.6552 6.91134 33.6792 6.92935 33.6981 6.95172C33.7171 6.97425 33.7303 7.00065 33.7368 7.02886C33.7433 7.05706 33.7428 7.0863 33.7355 7.11431C33.5444 7.86762 33.0697 8.52836 32.4011 8.97174C31.7324 9.41511 30.9161 9.61042 30.1063 9.52077C29.2965 9.43113 28.5492 9.06275 28.0057 8.4852C27.4621 7.90764 27.1599 7.1609 27.1561 6.38601C27.1523 5.61112 27.4471 4.86172 27.9849 4.27936C28.5228 3.69699 29.2663 3.32196 30.0752 3.22511C30.8841 3.12826 31.7023 3.31629 32.3753 3.75368C33.0483 4.19108 33.5295 4.84756 33.728 5.59914C33.7354 5.62726 33.7359 5.6566 33.7296 5.68494C33.7232 5.71328 33.7101 5.73987 33.6913 5.76268C33.6725 5.78549 33.6485 5.80391 33.6211 5.81654C33.5936 5.82918 33.5635 5.83569 33.533 5.83558H31.5534C31.5456 5.83555 31.5379 5.8336 31.531 5.8299C31.5243 5.82601 31.5187 5.82066 31.5146 5.81428C31.4126 5.64711 31.2673 5.50754 31.0925 5.40886C30.9151 5.30953 30.7133 5.2562 30.5074 5.25422C30.3015 5.25223 30.0986 5.30165 29.9191 5.39753C29.7395 5.49342 29.5896 5.63242 29.4843 5.80063C29.379 5.96884 29.322 6.16037 29.319 6.35608C29.316 6.5518 29.3671 6.74483 29.4672 6.9159C29.5673 7.08696 29.7128 7.23006 29.8893 7.33089C30.0658 7.43172 30.2671 7.48676 30.473 7.49049C30.6789 7.49422 30.8822 7.44652 31.0626 7.35216C31.2612 7.24769 31.4241 7.0912 31.5318 6.9013C31.5354 6.89442 31.5411 6.88872 31.5482 6.88497C31.5545 6.8822 31.5614 6.88074 31.5684 6.88071ZM41.0667 6.32265C41.0667 6.41708 41.0667 6.51009 41.0599 6.60239C41.0532 6.69469 41.0428 6.78557 41.0278 6.87574C41.0204 6.92039 40.9963 6.96099 40.9598 6.99006C40.9233 7.01941 40.877 7.03551 40.8291 7.0355H36.356C36.4397 7.19585 36.5536 7.34025 36.6921 7.4615C36.8308 7.58347 36.9922 7.67978 37.168 7.74551C37.2031 7.759 37.2382 7.77036 37.2741 7.78101C37.3099 7.79166 37.3488 7.80089 37.3839 7.8087L37.4018 7.81296H37.4197L37.4384 7.81651H37.4578L37.5012 7.82361L37.5445 7.82929H37.5587H37.5729H37.596H37.6192H37.6446H37.67H37.8119H37.8313H37.8582H37.8851H37.9046H37.924H37.9426H37.9613C38.2476 7.78776 38.5156 7.66954 38.7337 7.48848C38.7376 7.48507 38.7422 7.48241 38.7472 7.48067C38.7524 7.47993 38.7577 7.47993 38.7629 7.48067H40.5624C40.5964 7.48051 40.6298 7.48865 40.6595 7.50431C40.6892 7.51998 40.7142 7.54265 40.732 7.57013C40.7501 7.59766 40.7606 7.6291 40.7624 7.66151C40.7642 7.69392 40.7574 7.72624 40.7425 7.75545C40.4398 8.36563 39.9407 8.86845 39.3174 9.19113C38.6941 9.5138 37.979 9.63959 37.2754 9.55029C36.5719 9.46099 35.9166 9.16123 35.4042 8.6944C34.8919 8.22757 34.5491 7.61789 34.4255 6.95359C34.3019 6.2893 34.404 5.60487 34.7168 4.99935C35.0297 4.39383 35.5372 3.89865 36.1658 3.58547C36.7944 3.27229 37.5116 3.15736 38.2135 3.25733C38.9154 3.35729 39.5657 3.66695 40.0701 4.14149C40.6897 4.71663 41.0475 5.49968 41.0667 6.32265ZM39.105 5.71559C38.9962 5.50791 38.8372 5.32764 38.6411 5.18947C38.4418 5.04916 38.2095 4.95727 37.9643 4.92179H37.9456H37.927H37.9075H37.8881H37.8612H37.8343H37.8149H37.6491H37.6237H37.6005H37.5774H37.5632H37.549L37.5056 4.92747L37.4623 4.93457H37.4429H37.4242H37.4063H37.3884L37.3495 4.9431L37.3114 4.95304C37.2815 4.96156 37.2524 4.97008 37.2233 4.98002L37.1374 5.01126C36.9693 5.07973 36.8153 5.17588 36.6824 5.29526C36.5499 5.41397 36.4406 5.55413 36.3597 5.7092H39.1065L39.105 5.71559ZM18.9356 6.34608V9.32386C18.9357 9.34878 18.9306 9.37348 18.9206 9.39652C18.9106 9.41956 18.896 9.4405 18.8774 9.45812C18.8589 9.47574 18.8368 9.4897 18.8126 9.49919C18.7884 9.50869 18.7624 9.51353 18.7362 9.51343H17.3407C17.2875 9.51325 17.2365 9.49306 17.1989 9.45729C17.1612 9.42151 17.14 9.37304 17.1398 9.32244V9.15914C16.5005 9.47479 15.771 9.58522 15.0602 9.47389C14.3494 9.36256 13.6957 9.03547 13.1968 8.54155C12.6979 8.04763 12.3808 7.41346 12.2927 6.73391C12.2047 6.05437 12.3505 5.366 12.7085 4.77182C13.0664 4.17763 13.6171 3.70958 14.2782 3.4377C14.9394 3.16582 15.6753 3.10473 16.376 3.26357C17.0767 3.42241 17.7045 3.79265 18.1653 4.31887C18.6262 4.8451 18.8954 5.49901 18.9326 6.18277C18.9326 6.19626 18.9326 6.20904 18.9326 6.22253C18.9326 6.23602 18.9326 6.2488 18.9326 6.26229C18.9326 6.27578 18.9326 6.28999 18.9326 6.30348L18.9356 6.34608ZM17.136 6.34608C17.1359 6.00899 17.0127 5.6824 16.7876 5.42194C16.5625 5.16149 16.2493 4.98328 15.9014 4.91771C15.5535 4.85213 15.1925 4.90323 14.8798 5.0623C14.5671 5.22137 14.3222 5.47857 14.1866 5.79007C14.0511 6.10158 14.0334 6.44811 14.1366 6.77061C14.2397 7.09312 14.4574 7.37165 14.7524 7.55874C15.0474 7.74583 15.4015 7.82991 15.7545 7.79664C16.1074 7.76337 16.4372 7.61482 16.6878 7.3763C16.8308 7.24133 16.9442 7.08082 17.0217 6.90401C17.0991 6.7272 17.139 6.53759 17.139 6.34608H17.136Z" fill="white"/>
</svg>
