<svg width="54" height="20" viewBox="0 0 54 20" fill="none" xmlns="http://www.w3.org/2000/svg">
<path fill-rule="evenodd" clip-rule="evenodd" d="M14.7292 13.554H13.5716H12.4141C12.3416 13.554 12.2749 13.5231 12.2277 13.4745C12.1794 13.4247 12.1506 13.3571 12.1506 13.2823V6.77699V0.271649C12.1506 0.196916 12.1805 0.128114 12.2277 0.0794781C12.276 0.029656 12.3416 0 12.4141 0H13.5716H14.7292C14.8017 0 14.8684 0.0308422 14.9156 0.0794781C14.9639 0.1293 14.9927 0.196916 14.9927 0.271649V6.77699V13.2823C14.9927 13.3571 14.9627 13.4259 14.9156 13.4745C14.8684 13.5231 14.8017 13.554 14.7292 13.554ZM34.8411 9.05813V11.1803V13.3025C34.8411 13.3772 34.8112 13.446 34.764 13.4947C34.7157 13.5445 34.6501 13.5741 34.5776 13.5741H33.4201H32.2625C32.19 13.5741 32.1233 13.5433 32.0761 13.4947C32.029 13.4448 31.999 13.3772 31.999 13.3025V11.1791V9.05575C31.999 8.91459 31.9818 8.77817 31.9484 8.64769C31.915 8.5172 31.8656 8.39383 31.8034 8.27877C31.6872 8.06406 31.5238 7.88019 31.3282 7.7414C31.1326 7.60261 30.9036 7.5089 30.6574 7.47568L30.6321 7.47212L30.6271 7.47153L30.6189 7.47091L30.6189 7.47091C30.6145 7.47062 30.6101 7.47033 30.6056 7.46975C30.5838 7.46738 30.5619 7.46501 30.54 7.46382C30.5182 7.46263 30.4963 7.46145 30.4733 7.46145C30.0418 7.45552 29.6506 7.64057 29.3664 7.93832C29.0822 8.23606 28.9073 8.6465 28.9073 9.09134V11.1957V13.3013C28.9073 13.376 28.8774 13.4448 28.8302 13.4935C28.7819 13.5433 28.7163 13.573 28.6438 13.573H27.4863H26.3287C26.2562 13.573 26.1895 13.5421 26.1423 13.4935C26.0951 13.4437 26.0652 13.376 26.0652 13.3013V11.1768V9.05101V8.99644C26.0652 8.97865 26.0652 8.95967 26.0664 8.94187C26.0894 7.91934 26.4484 6.97746 27.0329 6.22776C27.6174 5.47806 28.4275 4.92408 29.3549 4.67616C29.3572 4.67497 29.3606 4.67497 29.3629 4.67378C29.3641 4.67319 29.3655 4.67289 29.367 4.6726L29.3686 4.67224C29.3695 4.67203 29.3703 4.67178 29.371 4.67141C29.8899 4.5433 30.3997 4.51008 30.8852 4.55872C31.3708 4.60735 31.8345 4.73784 32.2614 4.93713C32.2771 4.9442 32.2925 4.95168 32.3077 4.95909L32.3249 4.96744L32.3385 4.9739C32.355 4.98244 32.3716 4.99047 32.3885 4.99866L32.4156 5.01186C32.4219 5.01542 32.4282 5.01867 32.4345 5.02193L32.4346 5.02195C32.4409 5.02521 32.4472 5.02847 32.4535 5.03203C32.4599 5.03559 32.4662 5.03885 32.4725 5.04211C32.4789 5.04537 32.4852 5.04864 32.4915 5.05219L32.5111 5.06288L32.5198 5.06758L32.5306 5.07355L32.5406 5.07908C32.5503 5.08442 32.5604 5.08993 32.5698 5.09609C33.2475 5.48043 33.8159 6.04389 34.2152 6.72479C34.6098 7.40569 34.84 8.20403 34.8411 9.05813ZM11.0069 7.11981V7.0949C11.0057 6.79953 11.0057 6.4745 11.0092 6.15896C11.008 5.84104 11.008 5.53025 11.008 5.2669V5.22183V5.17675L11.0057 4.99051L11.0034 4.80427C11.0023 4.72716 10.9746 4.66192 10.9298 4.61447C10.8837 4.56821 10.8205 4.53974 10.7457 4.53737H10.7434H10.7376L10.2551 4.53795L10.2534 4.53795L10.2514 4.53796L10.2476 4.53796C9.65223 4.53874 8.60635 4.54011 7.57452 4.54093C6.06949 4.5433 4.59553 4.54448 4.59553 4.54448C4.28486 4.56109 3.97534 4.60261 3.66812 4.6726C3.3609 4.74259 3.05598 4.84104 2.75452 4.97153C2.00545 5.29537 1.38181 5.73428 0.919253 6.30368C0.456698 6.87307 0.154081 7.57414 0.0505243 8.42111C-0.0553341 9.28588 -0.00125426 10.0913 0.273747 10.8019C0.547598 11.5125 1.04352 12.1269 1.8202 12.6085L1.82156 12.6099C1.82624 12.6144 1.83997 12.6275 1.85012 12.6453C1.86162 12.6643 1.86738 12.6904 1.85127 12.7117C1.77533 12.7651 1.69938 12.8173 1.62229 12.8695L1.55877 12.9139C1.50367 12.9522 1.44847 12.9906 1.39447 13.0308C0.922705 13.3784 0.574063 13.8565 0.377304 14.3974C0.180546 14.9383 0.135671 15.5421 0.269145 16.1388C0.402618 16.7343 0.662662 17.1934 1.02971 17.5326C1.39677 17.8719 1.87083 18.0913 2.43234 18.2088C2.5451 18.2325 2.65901 18.2491 2.77408 18.2586C2.88799 18.2693 3.00305 18.2728 3.11812 18.2728C3.64149 18.2728 4.16601 18.2669 4.69053 18.261L4.69103 18.261L4.91738 18.2584C5.36636 18.2531 5.81473 18.2479 6.26395 18.2479C6.52514 18.2479 6.71385 18.3084 6.83697 18.4354C6.96008 18.5623 7.01762 18.7556 7.01647 19.0225C7.01647 19.0617 7.01531 19.2384 7.01416 19.4045L7.01186 19.7272C7.01416 19.8066 7.04063 19.8731 7.0878 19.9205C7.13498 19.968 7.19942 19.9964 7.27651 19.9976C7.27881 19.9976 7.27996 19.9976 7.28226 19.9988C7.28456 20 7.28571 20 7.28801 20L7.37891 19.9988L7.46982 19.9976H8.66187H9.85508L9.94023 19.9988L10.0254 20C10.0269 20 10.0283 19.9995 10.0295 19.9992L10.0311 19.9988C10.0334 19.9976 10.0346 19.9976 10.0369 19.9976C10.091 19.9976 10.1393 19.9822 10.1784 19.9573C10.2175 19.9324 10.2486 19.8956 10.2693 19.8517L10.2716 19.8493C10.272 19.8493 10.2722 19.8492 10.2725 19.849L10.273 19.8483L10.2739 19.847L10.2728 19.8482L10.2716 19.8493L10.2732 19.8464C10.3011 19.7953 10.5 19.4316 10.6812 18.9419C10.8665 18.4413 11.0356 17.8114 10.9873 17.2527C10.9045 16.6335 10.6283 16.0712 10.1922 15.6406C9.75613 15.21 9.1601 14.9098 8.43865 14.8149C8.18436 14.7817 7.64126 14.7663 7.01877 14.758C6.39627 14.7497 5.69669 14.7509 5.13173 14.7521L4.92725 14.7524C4.80257 14.7526 4.6868 14.7529 4.58287 14.7521C4.51313 14.7516 4.44872 14.7513 4.39041 14.751C4.31596 14.7507 4.25147 14.7504 4.19856 14.7497C3.99605 14.7473 3.84186 14.694 3.73946 14.6014C3.63705 14.5077 3.58527 14.3737 3.58757 14.2088C3.58988 14.0261 3.66582 13.8683 3.78894 13.7568C3.91205 13.6453 4.08005 13.5777 4.2653 13.5741L4.26868 13.5741C4.37684 13.5729 4.4839 13.5718 4.59208 13.5718C4.64673 13.5718 4.70139 13.5721 4.75604 13.5724C4.8107 13.5727 4.86535 13.573 4.92001 13.573H4.92008C5.22152 13.5741 5.52297 13.5753 5.82211 13.5646C6.12127 13.5552 6.41929 13.5326 6.71385 13.4875C7.65277 13.344 8.4329 12.9525 9.00936 12.3737C9.58468 11.796 9.95749 11.0308 10.0795 10.1412C10.1335 9.74852 10.1335 9.36299 10.0737 8.97865C10.0139 8.59431 9.89305 8.21234 9.7055 7.82562H10.1186H10.5317H10.6398H10.756C10.8285 7.82088 10.8895 7.79241 10.9321 7.74614C10.9746 7.69988 11.0011 7.63582 11.0023 7.55991L11.0046 7.35231L11.0069 7.14472V7.11981ZM7.27881 9.05219C7.27881 8.47805 7.05329 7.95848 6.68853 7.58244C6.32263 7.20641 5.81865 6.97272 5.26175 6.97272C4.70484 6.97272 4.20086 7.20522 3.83611 7.58126C3.47136 7.9573 3.24584 8.47687 3.24584 9.05101C3.24584 9.62515 3.47136 10.1447 3.83611 10.5208C4.20086 10.8968 4.70484 11.1293 5.26175 11.1293C5.81865 11.1293 6.32263 10.8968 6.68738 10.5208C7.05329 10.1459 7.27881 9.62633 7.27881 9.05219ZM42.8035 10.0142H41.509C41.4987 10.0142 41.4883 10.0154 41.4791 10.0214C41.4699 10.0273 41.4619 10.0356 41.4573 10.0451C41.3157 10.3155 41.1017 10.5397 40.8405 10.688C40.5793 10.8375 40.2733 10.9098 39.9476 10.879C39.5863 10.8446 39.2595 10.6797 39.0122 10.4294C38.7648 10.1791 38.5979 9.8446 38.5577 9.47331C38.5059 8.9917 38.6624 8.54804 38.9454 8.2242C39.2285 7.90036 39.6393 7.69632 40.0949 7.69632C40.3814 7.69632 40.6495 7.77699 40.8796 7.91696C41.1098 8.05694 41.3019 8.25623 41.4354 8.49466C41.4411 8.50415 41.4481 8.51246 41.4573 8.5172C41.4653 8.52313 41.4757 8.5255 41.486 8.5255H42.7897H44.0911C44.1762 8.5255 44.251 8.48399 44.2993 8.42111C44.3476 8.35824 44.3684 8.27402 44.3476 8.18861C44.1037 7.18268 43.533 6.31079 42.7586 5.6987C41.9842 5.0866 41.0051 4.73547 39.9465 4.77224C38.7924 4.81139 37.7488 5.3191 36.9859 6.11269C36.223 6.90629 35.7421 7.98814 35.7144 9.17794C35.6845 10.4508 36.1655 11.6074 36.9617 12.446C37.7568 13.2847 38.8672 13.8055 40.0949 13.8055C41.127 13.8055 42.0763 13.4365 42.8254 12.8209C43.5744 12.2052 44.1233 11.3416 44.3546 10.3499C44.3741 10.2645 44.3534 10.1803 44.3051 10.1174C44.2579 10.0558 44.1831 10.0142 44.098 10.0142H42.8035ZM53.9992 9.21827C54.0015 9.35231 53.9992 9.48517 53.99 9.61684C53.9808 9.74852 53.9669 9.87782 53.9485 10.0059C53.9382 10.0724 53.906 10.1293 53.8588 10.1696C53.8128 10.21 53.7518 10.2337 53.6873 10.2337H52.554H51.4206H50.7141H50.0076H48.9076H47.8076C47.9181 10.4638 48.0688 10.669 48.2494 10.841C48.4301 11.013 48.6418 11.1507 48.8754 11.2456C48.9214 11.2645 48.9674 11.2811 49.0158 11.2966C49.0641 11.312 49.1113 11.325 49.1608 11.3369C49.1648 11.3381 49.1688 11.339 49.1728 11.3399C49.1769 11.3407 49.1809 11.3416 49.1849 11.3428C49.193 11.3452 49.201 11.3464 49.2091 11.3476C49.2171 11.3499 49.2252 11.3511 49.2332 11.3523C49.2373 11.3529 49.2413 11.3538 49.2455 11.3547C49.2497 11.3556 49.254 11.3565 49.2586 11.3571C49.277 11.3606 49.2965 11.3642 49.3149 11.3665C49.3247 11.3677 49.3342 11.3692 49.3437 11.3707C49.3532 11.3722 49.3627 11.3737 49.3725 11.3749C49.3752 11.3754 49.3782 11.3757 49.3813 11.376L49.3817 11.376C49.3848 11.3763 49.388 11.3766 49.3909 11.3772C49.3938 11.3778 49.3969 11.3781 49.4001 11.3784C49.4032 11.3787 49.4064 11.379 49.4093 11.3796L49.4404 11.3832C49.4507 11.3843 49.4611 11.3843 49.4714 11.3855C49.4772 11.3861 49.4826 11.3864 49.4881 11.3867C49.4936 11.387 49.499 11.3873 49.5048 11.3879C49.5105 11.3885 49.516 11.3888 49.5215 11.3891L49.5292 11.3895L49.5382 11.3903C49.5445 11.3903 49.5511 11.3906 49.5577 11.3909C49.5643 11.3912 49.571 11.3915 49.5773 11.3915H49.6164H49.6578C49.6647 11.3915 49.6716 11.3912 49.6785 11.3909L49.691 11.3904L49.6992 11.3903C49.7073 11.3903 49.7165 11.3891 49.7246 11.3891C49.7286 11.3891 49.7329 11.3888 49.7372 11.3885C49.7415 11.3882 49.7458 11.3879 49.7499 11.3879L49.76 11.3871L49.7677 11.3867L49.7758 11.3863L49.7855 11.3855L49.8212 11.382C49.8293 11.3808 49.8385 11.3796 49.8465 11.3796L49.8718 11.376L49.8801 11.3748L49.8972 11.3725L49.9225 11.3689C50.1158 11.3381 50.2987 11.28 50.4702 11.1969C50.6405 11.1139 50.7981 11.0071 50.9396 10.8814C50.9454 10.8766 50.9511 10.8731 50.9569 10.8707C50.9638 10.8683 50.9707 10.8671 50.9776 10.8671H52.1593H53.3376C53.4354 10.8671 53.5159 10.9193 53.5608 10.9953C53.6068 11.07 53.6172 11.1684 53.5746 11.2598C53.219 12.0285 52.6598 12.6773 51.9683 13.1317C51.2768 13.586 50.4541 13.847 49.5704 13.8387C48.391 13.828 47.3174 13.3286 46.5316 12.5291C45.7468 11.7295 45.2497 10.6275 45.2256 9.41281C45.2003 8.13404 45.6893 6.97272 46.4936 6.13405C47.299 5.29537 48.4197 4.78055 49.6567 4.79359C50.8349 4.80546 51.9085 5.30605 52.6932 6.10676C53.4779 6.90747 53.975 8.00356 53.9992 9.21827ZM50.8108 7.40095C51.0674 7.59668 51.2779 7.85291 51.4206 8.15065V8.1554H49.613H47.8053C47.9123 7.93238 48.0561 7.7331 48.2299 7.56465C48.4036 7.3962 48.6061 7.25979 48.8282 7.16251C48.865 7.14591 48.903 7.13167 48.941 7.11744C48.9801 7.1032 49.0181 7.09015 49.0572 7.07829L49.0907 7.06885L49.1078 7.06406C49.1239 7.05931 49.1412 7.05457 49.1585 7.05101C49.1625 7.04982 49.1665 7.04893 49.1705 7.04804C49.1746 7.04715 49.1786 7.04626 49.1826 7.04508C49.1866 7.04389 49.1907 7.043 49.1947 7.04211C49.1987 7.04122 49.2028 7.04033 49.2068 7.03915C49.2108 7.03855 49.2148 7.03766 49.2189 7.03677C49.2229 7.03588 49.2269 7.03499 49.2309 7.0344C49.235 7.03381 49.2393 7.03292 49.2436 7.03203C49.2479 7.03114 49.2522 7.03025 49.2563 7.02966C49.2747 7.0261 49.2931 7.02254 49.3126 7.02017C49.3322 7.01661 49.3506 7.01424 49.3702 7.01186C49.373 7.01127 49.3762 7.01097 49.3794 7.01068C49.3825 7.01038 49.3857 7.01008 49.3886 7.00949C49.3943 7.0083 49.4012 7.0083 49.407 7.00712L49.4381 7.00356C49.4402 7.00332 49.4423 7.00313 49.4444 7.00296C49.4475 7.00272 49.4505 7.00255 49.4536 7.00237C49.458 7.00212 49.4623 7.00187 49.4667 7.00144C49.4675 7.00137 49.4683 7.00128 49.4691 7.00119C49.4749 7.00059 49.4803 7.0003 49.4858 7C49.4913 6.9997 49.4967 6.99941 49.5025 6.99881C49.5082 6.99881 49.5137 6.99852 49.5192 6.99822C49.5246 6.99792 49.5301 6.99763 49.5359 6.99763C49.5399 6.99763 49.544 6.99751 49.5482 6.99734C49.5506 6.99725 49.553 6.99714 49.5554 6.99703C49.562 6.99674 49.5687 6.99644 49.575 6.99644H49.6141H49.6555C49.6693 6.99644 49.6831 6.99644 49.6969 6.99763L49.7036 6.99785C49.7095 6.99819 49.7156 6.99881 49.7223 6.99881C49.7303 6.99881 49.7395 6.99881 49.7476 7C49.7514 7.00036 49.7551 7.00061 49.7587 7.00081C49.761 7.00094 49.7632 7.00105 49.7654 7.00116C49.7715 7.00147 49.7773 7.00176 49.7832 7.00237L49.8189 7.00593C49.827 7.00593 49.8362 7.00712 49.8442 7.0083L49.8695 7.01186L49.8949 7.01542L49.9127 7.01789L49.9202 7.01898C50.2504 7.07117 50.5542 7.20522 50.8108 7.40095ZM24.9019 9.05101V11.1744V13.2977C24.9019 13.3725 24.872 13.4401 24.8248 13.4899C24.7777 13.5397 24.7109 13.5694 24.6384 13.5694H23.7881H22.9378H22.9021H22.8665H22.8331H22.7997C22.7272 13.5694 22.6605 13.5386 22.6133 13.4899C22.5661 13.4413 22.5362 13.3725 22.5362 13.2977V13.1815V13.0652C22.2348 13.2266 21.9126 13.3535 21.5743 13.4389C21.2372 13.5255 20.8839 13.5706 20.5203 13.5706C19.2914 13.5706 18.1811 13.0498 17.386 12.21C16.5897 11.3701 16.1088 10.2123 16.1387 8.9395C16.1675 7.74852 16.6496 6.66548 17.4147 5.87189C18.1799 5.07829 19.2258 4.57295 20.3811 4.53618C20.7838 4.52313 21.175 4.56702 21.5478 4.65955C21.9206 4.75208 22.2739 4.89324 22.603 5.07711C23.2565 5.44247 23.8088 5.97272 24.2092 6.61566C24.6097 7.2586 24.8559 8.01186 24.895 8.82206C24.8956 8.83149 24.8959 8.84092 24.8962 8.85035L24.8962 8.85053L24.8962 8.85072C24.8965 8.86015 24.8968 8.86958 24.8973 8.879C24.8979 8.8885 24.8982 8.898 24.8985 8.9075C24.8988 8.91698 24.8991 8.92646 24.8996 8.93594C24.8996 8.94596 24.8999 8.95569 24.9002 8.96541L24.9002 8.9656C24.9005 8.97539 24.9008 8.98517 24.9008 8.99525C24.9019 9.01068 24.9019 9.03084 24.9019 9.05101ZM21.9448 7.58126C22.3095 7.9573 22.5351 8.47687 22.5351 9.05101C22.5351 9.62515 22.3095 10.1447 21.9448 10.5208C21.58 10.8968 21.0761 11.1293 20.5192 11.1293C19.9623 11.1293 19.4583 10.8968 19.0935 10.5208C18.7288 10.1447 18.5032 9.62515 18.5032 9.05101C18.5032 8.47687 18.7288 7.9573 19.0935 7.58126C19.4583 7.20522 19.9623 6.97272 20.5192 6.97272C21.0761 6.97272 21.58 7.20522 21.9448 7.58126Z" fill="#FF2664"/>
</svg>
